<svg width="53" height="54" viewBox="0 0 53 54" fill="none" xmlns="http://www.w3.org/2000/svg">
<path d="M14.5 14.5L26.5 26L37.5 15C40.3 12.2 40.3333 7.83349 40 6.00024C36 -1.19976 29.3333 1.6669 26.5 4.00024C26.3333 3.33351 24.7 1.90005 19.5 1.50005C14.3 1.10005 12.6667 7.33338 12.5 10.5L14.5 14.5Z" fill="#BFE6FE"/>
<path d="M31.8427 9.6278H29.1714V6.95383C29.1714 6.71743 29.0775 6.49072 28.9105 6.32356C28.7436 6.15641 28.5171 6.0625 28.2809 6.0625H24.7191C24.4829 6.0625 24.2564 6.15641 24.0894 6.32356C23.9224 6.49072 23.8286 6.71743 23.8286 6.95383V9.6278H21.1572C20.9211 9.6278 20.6946 9.72171 20.5276 9.88886C20.3606 10.056 20.2668 10.2827 20.2668 10.5191V14.0844C20.2668 14.3208 20.3606 14.5475 20.5276 14.7147C20.6946 14.8818 20.9211 14.9758 21.1572 14.9758H23.8286V17.6497C23.8286 17.8861 23.9224 18.1128 24.0894 18.28C24.2564 18.4471 24.4829 18.5411 24.7191 18.5411H28.2809C28.5171 18.5411 28.7436 18.4471 28.9105 18.28C29.0775 18.1128 29.1714 17.8861 29.1714 17.6497V14.9758H31.8427C32.0789 14.9758 32.3054 14.8818 32.4724 14.7147C32.6394 14.5475 32.7332 14.3208 32.7332 14.0844V10.5191C32.7332 10.2827 32.6394 10.056 32.4724 9.88886C32.3054 9.72171 32.0789 9.6278 31.8427 9.6278ZM30.9523 13.1931H28.2809C28.0447 13.1931 27.8182 13.287 27.6512 13.4542C27.4843 13.6213 27.3904 13.848 27.3904 14.0844V16.7584H25.6095V14.0844C25.6095 13.848 25.5157 13.6213 25.3487 13.4542C25.1817 13.287 24.9552 13.1931 24.7191 13.1931H22.0477V11.4105H24.7191C24.9552 11.4105 25.1817 11.3165 25.3487 11.1494C25.5157 10.9822 25.6095 10.7555 25.6095 10.5191V7.84515H27.3904V10.5191C27.3904 10.7555 27.4843 10.9822 27.6512 11.1494C27.8182 11.3165 28.0447 11.4105 28.2809 11.4105H30.9523V13.1931Z" fill="#404C6C"/>
<path d="M51.1924 14.4053C51.2104 14.2485 51.2193 14.0907 51.2191 13.9329C51.2148 13.1159 50.9316 12.3249 50.4166 11.691C49.9016 11.0572 49.1856 10.6185 48.3874 10.4478C47.4845 10.2758 46.5501 10.4535 45.7731 10.9449C44.9961 11.4364 44.4346 12.2049 44.2023 13.095L40.2843 24.3792C40.2262 24.4023 40.1697 24.4291 40.1151 24.4594L32.2434 29.0765C31.0389 29.7847 30.0398 30.7953 29.3449 32.0083C28.6499 33.2213 28.2832 34.5949 28.2809 35.9932V44.3895C28.0447 44.3895 27.8182 44.4834 27.6513 44.6505C27.4843 44.8177 27.3904 45.0444 27.3904 45.2808V52.4114C27.3904 52.6478 27.4843 52.8745 27.6513 53.0416C27.8182 53.2088 28.0447 53.3027 28.2809 53.3027H40.7473C40.9835 53.3027 41.21 53.2088 41.3769 53.0416C41.5439 52.8745 41.6378 52.6478 41.6378 52.4114V45.2808C41.6378 45.0444 41.5439 44.8177 41.3769 44.6505C41.21 44.4834 40.9835 44.3895 40.7473 44.3895V42.4285C40.749 42.0521 40.829 41.6801 40.9823 41.3363C41.1356 40.9926 41.3589 40.6846 41.6378 40.432L47.6572 35.0751C48.3157 34.4984 48.787 33.738 49.0107 32.8914L52.8753 18.4252C52.9578 18.1231 52.9998 17.8113 53 17.4982C52.9965 16.8692 52.8276 16.2522 52.5103 15.7092C52.193 15.1663 51.7384 14.7166 51.1924 14.4053ZM45.903 13.6209C46.0124 13.16 46.2912 12.7572 46.684 12.4929C47.0768 12.2286 47.5546 12.1221 48.0223 12.1948C48.4215 12.2785 48.7798 12.4967 49.0375 12.8131C49.2952 13.1294 49.4366 13.5247 49.4382 13.9329V13.9507C48.6428 13.9655 47.874 14.2399 47.2487 14.7322C46.6234 15.2246 46.1759 15.9079 45.9743 16.6782L43.4899 24.3525C43.1138 24.1739 42.7105 24.0594 42.2967 24.0138L45.903 13.6209ZM39.8568 51.5201H29.1714V46.1721H39.8568V51.5201ZM51.1567 17.9617L47.2833 32.4368C47.1492 32.9398 46.8706 33.3923 46.4818 33.7381L40.4534 39.095C39.987 39.5161 39.6137 40.0302 39.3576 40.6043C39.1015 41.1784 38.9682 41.7998 38.9664 42.4285V44.3895H30.0618V35.9932C30.0662 34.9057 30.3524 33.838 30.8925 32.8944C31.4325 31.9507 32.2079 31.1635 33.1428 30.6096L41.0055 26.0014C41.2083 25.8832 41.4323 25.8062 41.6649 25.7749C41.8974 25.7437 42.1338 25.7587 42.3606 25.8191C42.5873 25.8796 42.7998 25.9843 42.986 26.1273C43.1722 26.2702 43.3283 26.4486 43.4454 26.6521C43.6767 27.0639 43.7405 27.5492 43.6235 28.0069C43.5616 28.2329 43.4559 28.4445 43.3122 28.6296C43.1686 28.8146 42.9899 28.9695 42.7864 29.0854L37.6841 32.0357C37.4903 32.159 37.3516 32.3526 37.2969 32.5758C37.2423 32.7991 37.276 33.0349 37.3909 33.234C37.5058 33.433 37.6932 33.5799 37.9137 33.6439C38.1343 33.708 38.3711 33.6842 38.5746 33.5777L43.6769 30.6274C44.0847 30.3958 44.4422 30.0848 44.7281 29.7129C45.0141 29.3409 45.2228 28.9154 45.3421 28.4615C45.5845 27.5495 45.4564 26.5785 44.9859 25.7608L44.9324 25.6805L47.684 17.1862C47.7933 16.7253 48.0721 16.3225 48.4649 16.0582C48.8577 15.7939 49.3356 15.6874 49.8032 15.7601C50.2024 15.8438 50.5607 16.062 50.8184 16.3784C51.0761 16.6947 51.2175 17.09 51.2191 17.4982C51.2221 17.655 51.201 17.8113 51.1567 17.9617Z" fill="#404C6C"/>
<path d="M24.7191 44.3893V35.993C24.7168 34.5947 24.35 33.2212 23.6551 32.0082C22.9602 30.7951 21.9611 29.7846 20.7566 29.0764L12.8849 24.4504C12.8315 24.4236 12.7692 24.4058 12.7157 24.3791L8.82443 13.1573C8.59826 12.2542 8.03682 11.4713 7.25436 10.9679C6.4719 10.4645 5.52722 10.2785 4.61257 10.4477C3.81435 10.6184 3.09839 11.057 2.58338 11.6909C2.06837 12.3247 1.78523 13.1157 1.78091 13.9327C1.78068 14.0906 1.7896 14.2483 1.80763 14.4052C1.26157 14.7164 0.807024 15.1662 0.489708 15.7091C0.172392 16.252 0.00349414 16.869 0 17.4981C0.0017295 17.8105 0.0405889 18.1217 0.115759 18.425L3.98925 32.8823C4.2106 33.7325 4.68217 34.4965 5.34274 35.075L11.3533 40.4318C11.635 40.6827 11.8607 40.9901 12.0157 41.3342C12.1706 41.6782 12.2514 42.051 12.2527 42.4284V44.3893C12.0165 44.3893 11.79 44.4832 11.623 44.6504C11.456 44.8175 11.3622 45.0443 11.3622 45.2807V52.4113C11.3622 52.6476 11.456 52.8744 11.623 53.0415C11.79 53.2087 12.0165 53.3026 12.2527 53.3026H24.7191C24.9553 53.3026 25.1817 53.2087 25.3487 53.0415C25.5157 52.8744 25.6095 52.6476 25.6095 52.4113V45.2807C25.6095 45.0443 25.5157 44.8175 25.3487 44.6504C25.1817 44.4832 24.9553 44.3893 24.7191 44.3893ZM3.56183 13.9327C3.56293 13.5258 3.70309 13.1315 3.95903 12.8153C4.21496 12.4991 4.57127 12.2801 4.96875 12.1947C5.44929 12.1248 5.93844 12.2395 6.3381 12.5155C6.73775 12.7916 7.01836 13.2087 7.12366 13.6832L10.7033 24.0136C10.2895 24.0593 9.88622 24.1738 9.51008 24.3523L7.04352 16.7226C6.84278 15.9447 6.39441 15.2534 5.76622 14.7532C5.13804 14.2531 4.36422 13.9713 3.56183 13.9506V13.9327ZM12.5376 39.0949L6.51815 33.738C6.12728 33.3903 5.84836 32.9343 5.71673 32.4277L1.83434 17.9615C1.79748 17.8098 1.77954 17.6542 1.78091 17.4981C1.78201 17.0911 1.92217 16.6968 2.17811 16.3806C2.43405 16.0644 2.79036 15.8454 3.18784 15.76C3.665 15.6883 4.15158 15.8001 4.54972 16.073C4.94785 16.3458 5.22801 16.7594 5.33384 17.2307L8.06754 25.6804L8.01411 25.7606C7.54359 26.5784 7.41554 27.5494 7.65793 28.4614C7.77715 28.9153 7.98589 29.3408 8.27186 29.7127C8.55783 30.0847 8.91525 30.3957 9.32309 30.6273L14.4254 33.5776C14.6289 33.6841 14.8657 33.7078 15.0863 33.6438C15.3068 33.5797 15.4941 33.4329 15.6091 33.2338C15.724 33.0348 15.7577 32.799 15.703 32.5757C15.6484 32.3524 15.5097 32.1589 15.3159 32.0356L10.2135 29.0853C10.0101 28.9694 9.83138 28.8145 9.68776 28.6294C9.54413 28.4444 9.43837 28.2328 9.37651 28.0068C9.25953 27.5491 9.32332 27.0638 9.55461 26.652C9.67095 26.4489 9.82612 26.2707 10.0113 26.1277C10.1964 25.9846 10.4079 25.8794 10.6336 25.8182C10.8593 25.7569 11.0949 25.7408 11.3269 25.7707C11.5589 25.8006 11.7827 25.8759 11.9856 25.9924L19.8572 30.6094C20.7921 31.1634 21.5675 31.9506 22.1075 32.8942C22.6476 33.8378 22.9338 34.9056 22.9382 35.993V44.3893H14.0336V42.4284C14.0321 41.7988 13.8981 41.1765 13.6403 40.6021C13.3826 40.0278 13.0069 39.5142 12.5376 39.0949ZM23.8286 51.5199H13.1431V46.172H23.8286V51.5199Z" fill="#404C6C"/>
<path d="M39.0972 2.61457C38.2706 1.78567 37.2888 1.12809 36.2079 0.679444C35.1271 0.230803 33.9685 -8.2767e-05 32.7984 2.22565e-08C31.6283 8.28115e-05 30.4697 0.231133 29.389 0.679927C28.3082 1.12872 27.3265 1.78645 26.4999 2.61547C25.6735 1.78643 24.6918 1.12869 23.6111 0.679922C22.5303 0.23115 21.3718 0.000151328 20.2017 0.000151328C19.0317 0.000151328 17.8731 0.23115 16.7924 0.679922C15.7117 1.12869 14.73 1.78643 13.9035 2.61547C12.2369 4.28731 11.3009 6.55266 11.3009 8.91446C11.3009 11.2763 12.2369 13.5416 13.9035 15.2135L25.8713 27.1929C26.0383 27.36 26.2647 27.4538 26.5008 27.4538C26.7369 27.4538 26.9634 27.36 27.1304 27.1929L39.0981 15.2135C40.7647 13.5413 41.7006 11.2758 41.7004 8.91383C41.7002 6.55188 40.764 4.28645 39.0972 2.61457ZM26.4999 25.3024L15.1617 13.9531C14.1663 12.9554 13.4888 11.6846 13.2148 10.3015C12.9408 8.91837 13.0826 7.48497 13.6223 6.18251C14.162 4.88004 15.0754 3.76699 16.247 2.98406C17.4185 2.20112 18.7957 1.78345 20.2044 1.78386C21.1402 1.78064 22.0672 1.96396 22.9315 2.32313C23.7957 2.68229 24.5798 3.21011 25.2382 3.8758L25.8704 4.50864C26.0374 4.67574 26.2638 4.76961 26.4999 4.76961C26.7361 4.76961 26.9625 4.67574 27.1295 4.50864L27.7635 3.87402C28.4246 3.2111 29.2098 2.68517 30.0741 2.32633C30.9385 1.9675 31.8651 1.78279 32.8008 1.78279C33.7366 1.78279 34.6631 1.9675 35.5275 2.32633C36.3919 2.68517 37.1771 3.2111 37.8381 3.87402C39.172 5.21098 39.9212 7.02321 39.9212 8.91268C39.9212 10.8021 39.172 12.6144 37.8381 13.9513L26.4999 25.3024Z" fill="#404C6C"/>
</svg>
