<svg width="55" height="54" viewBox="0 0 55 54" fill="none" xmlns="http://www.w3.org/2000/svg">
<path d="M48.6128 35.5708L40.6171 39.9547C40.2687 38.9102 39.6021 38.001 38.7107 37.3547C37.8192 36.7084 36.7478 36.3575 35.6468 36.3512H29.4753C28.47 36.3494 27.4784 36.1182 26.576 35.6751L25.9396 35.362C24.133 34.4667 22.1109 34.0975 20.1045 34.2968C18.0981 34.496 16.1882 35.2556 14.5929 36.4887C14.5783 36.4998 14.5642 36.5116 14.5506 36.5239L13.014 37.915C12.3909 38.4763 11.6472 38.8869 10.8403 39.1152C10.7704 39.0574 10.6896 39.0144 10.6026 38.9889C10.5156 38.9633 10.4243 38.9557 10.3343 38.9665L4.39913 39.7145C4.23093 39.7358 4.07711 39.8203 3.9689 39.9508C3.86068 40.0813 3.80616 40.2481 3.81641 40.4173L4.58432 53.3717C4.59437 53.5417 4.66898 53.7014 4.7929 53.8182C4.91681 53.935 5.08067 54.0001 5.25096 54C5.28014 54 5.30929 53.9981 5.33821 53.9943L14.2536 52.819C14.3461 52.8068 14.435 52.7754 14.5146 52.7267C14.5942 52.6781 14.6627 52.6133 14.7158 52.5365C14.7688 52.4597 14.8051 52.3727 14.8225 52.281C14.8398 52.1894 14.8377 52.0951 14.8164 52.0042L14.7888 51.8868L19.3992 48.9216C20.0104 48.5762 20.7316 48.4808 21.4117 48.6554L30.7311 50.4026C33.2509 50.861 35.8515 50.4876 38.1405 49.3387L54.268 38.0811C54.4061 37.9847 54.5026 37.8396 54.5382 37.6751C54.5739 37.5105 54.5461 37.3386 54.4603 37.1936C53.8904 36.2133 52.9597 35.4948 51.867 35.1916C50.7744 34.8883 49.6065 35.0244 48.6128 35.5708ZM5.8743 52.5758L5.18619 40.9616L9.9418 40.3623L13.3362 51.5922L5.8743 52.5758ZM38.0032 47.8137C37.6104 48.0916 37.1873 48.3239 36.7419 48.5059C34.9129 49.2395 32.9139 49.4418 30.975 49.0895L21.7204 47.3558C20.7054 47.1008 19.6312 47.2487 18.723 47.7686C18.7125 47.7746 18.7021 47.7808 18.692 47.7874L14.4132 50.5393L11.3367 40.3617C12.2907 40.0699 13.1692 39.5729 13.9106 38.9055L15.4264 37.5326C16.8239 36.4584 18.4948 35.7978 20.249 35.6259C22.0033 35.454 23.7706 35.7778 25.35 36.5603L25.9864 36.8734C27.0723 37.4066 28.2656 37.6847 29.4753 37.6867H35.6468C37.574 37.6867 39.181 39.1126 39.507 40.985L35.0017 40.7777C33.3826 40.7033 31.7601 40.7789 30.155 41.0036C29.9916 41.0248 29.8414 41.1044 29.7322 41.2279C29.623 41.3513 29.5623 41.5101 29.5613 41.6749C29.5624 41.7699 29.5837 41.8635 29.6238 41.9495C29.6639 42.0356 29.7219 42.1121 29.7939 42.174C29.8659 42.2358 29.9503 42.2816 30.0415 42.3083C30.1326 42.335 30.2283 42.3419 30.3223 42.3286C31.8517 42.1138 33.3976 42.0412 34.9403 42.1117L40.2044 42.3541C40.2208 42.3548 40.237 42.355 40.2536 42.3541C40.3338 42.3523 40.4131 42.3357 40.4873 42.3052C40.61 42.2548 40.715 42.1691 40.7889 42.059C40.8628 41.9489 40.9023 41.8192 40.9024 41.6866C40.9024 41.5642 40.8969 41.4437 40.8888 41.3235L49.255 36.7409C49.8511 36.4132 50.5407 36.2975 51.2111 36.4127C51.8815 36.528 52.4929 36.8673 52.9453 37.3753L38.0032 47.8137Z" fill="#404C6C"/>
<path d="M22.5 17.5H21L20 21V24L46 33.5L48 32L52.5 20L51.5 18L28 9.5L25.5 9L24 10L23 13L25 14L27.5 14.5L28.5 16V17.5L27 18.5L25 18L22.5 17.5Z" fill="#BFE6FE"/>
<path d="M9.36903 30.3135H9.36681C9.27912 30.3133 9.19226 30.3305 9.11119 30.3639C9.03012 30.3973 8.95643 30.4464 8.89433 30.5083C8.7689 30.6333 8.69828 30.8031 8.698 30.9802C8.69772 31.1573 8.7678 31.3272 8.89283 31.4527C9.01786 31.5781 9.18759 31.6487 9.36469 31.649L10.0168 31.6511H10.0189C10.196 31.6514 10.3659 31.5813 10.4913 31.4563C10.6168 31.3312 10.6874 31.1615 10.6877 30.9844C10.688 30.8073 10.6179 30.6373 10.4928 30.5119C10.3678 30.3865 10.1981 30.3159 10.021 30.3156L9.36903 30.3135Z" fill="#404C6C"/>
<path d="M11.7831 31.6578L16.343 31.6792H16.3461C16.5232 31.6797 16.6932 31.6097 16.8187 31.4848C16.9443 31.3598 17.015 31.1902 17.0154 31.0131C17.0158 30.836 16.9459 30.6659 16.8209 30.5404C16.696 30.4149 16.5263 30.3442 16.3492 30.3437L11.7895 30.3223H11.7863C11.6092 30.3219 11.4391 30.3918 11.3136 30.5167C11.1881 30.6417 11.1174 30.8114 11.1169 30.9885C11.1165 31.1656 11.1865 31.3356 11.3114 31.4611C11.4364 31.5866 11.606 31.6574 11.7831 31.6578Z" fill="#404C6C"/>
<path d="M14.3193 28.4764H14.3215C14.4986 28.4767 14.6685 28.4066 14.794 28.2816C14.9194 28.1565 14.99 27.9868 14.9903 27.8097C14.9906 27.6326 14.9205 27.4626 14.7955 27.3372C14.6704 27.2118 14.5007 27.1412 14.3236 27.1409L13.6718 27.1387H13.6694C13.4923 27.1384 13.3224 27.2085 13.1969 27.3335C13.0715 27.4585 13.0009 27.6283 13.0006 27.8054C13.0003 27.9825 13.0704 28.1524 13.1954 28.2778C13.3205 28.4033 13.4902 28.4739 13.6673 28.4742L14.3193 28.4764Z" fill="#404C6C"/>
<path d="M11.9019 28.4692C12.079 28.4697 12.249 28.3998 12.3746 28.275C12.5002 28.1501 12.5711 27.9805 12.5716 27.8034C12.5721 27.6263 12.5022 27.4562 12.3774 27.3306C12.2525 27.205 12.0829 27.1342 11.9058 27.1337L8.30515 27.1123H8.30148C8.21379 27.1121 8.12691 27.1291 8.0458 27.1624C7.96469 27.1957 7.89094 27.2447 7.82876 27.3065C7.76657 27.3684 7.71718 27.4419 7.68339 27.5228C7.6496 27.6037 7.63209 27.6905 7.63184 27.7782C7.63159 27.8659 7.64862 27.9527 7.68194 28.0338C7.71527 28.115 7.76425 28.1887 7.82608 28.2509C7.88791 28.3131 7.96138 28.3625 8.0423 28.3963C8.12322 28.43 8.21001 28.4476 8.2977 28.4478L11.8983 28.4692H11.9019Z" fill="#404C6C"/>
<path d="M47.1057 45.2525L45.6504 46.2787C45.5779 46.3289 45.516 46.3929 45.4684 46.4672C45.4208 46.5414 45.3883 46.6243 45.3729 46.7111C45.3575 46.798 45.3595 46.887 45.3787 46.9731C45.3979 47.0591 45.4339 47.1406 45.4847 47.2126C45.5356 47.2847 45.6002 47.346 45.6748 47.3929C45.7494 47.4399 45.8327 47.4716 45.9196 47.4863C46.0066 47.5009 46.0956 47.4982 46.1815 47.4782C46.2674 47.4583 46.3485 47.4215 46.4201 47.37L47.8754 46.3438C48.0183 46.241 48.115 46.086 48.1442 45.9123C48.1734 45.7387 48.1328 45.5606 48.0314 45.4167C47.9299 45.2728 47.7757 45.1748 47.6023 45.1441C47.4289 45.1133 47.2504 45.1523 47.1057 45.2525Z" fill="#404C6C"/>
<path d="M41.2846 49.3579L39.8294 50.384C39.7578 50.4346 39.6968 50.4987 39.6499 50.5728C39.603 50.647 39.5712 50.7296 39.5563 50.816C39.5413 50.9024 39.5436 50.9909 39.5628 51.0765C39.5821 51.162 39.618 51.2429 39.6686 51.3146C39.7191 51.3863 39.7833 51.4473 39.8574 51.4941C39.9315 51.541 40.0141 51.5728 40.1005 51.5878C40.1869 51.6027 40.2754 51.6005 40.361 51.5812C40.4465 51.5619 40.5275 51.526 40.5991 51.4755L42.0543 50.4492C42.1268 50.3991 42.1886 50.335 42.2363 50.2608C42.2839 50.1866 42.3163 50.1036 42.3317 50.0168C42.3471 49.93 42.3452 49.841 42.326 49.7549C42.3068 49.6688 42.2708 49.5874 42.2199 49.5153C42.1691 49.4432 42.1045 49.382 42.0299 49.335C41.9552 49.288 41.872 49.2563 41.7851 49.2417C41.6981 49.227 41.6091 49.2298 41.5232 49.2497C41.4373 49.2697 41.3562 49.3065 41.2846 49.3579Z" fill="#404C6C"/>
<path d="M50.016 43.2002L48.5608 44.2264C48.416 44.3285 48.3178 44.4839 48.2876 44.6584C48.2574 44.8329 48.2978 45.0122 48.3999 45.157C48.502 45.3017 48.6573 45.4 48.8319 45.4301C49.0064 45.4603 49.1857 45.4199 49.3305 45.3178L50.7857 44.2916C50.9304 44.1896 51.0287 44.0342 51.0589 43.8597C51.089 43.6851 51.0486 43.5058 50.9466 43.3611C50.8445 43.2163 50.6891 43.1181 50.5146 43.0879C50.3401 43.0577 50.1607 43.0981 50.016 43.2002Z" fill="#404C6C"/>
<path d="M44.1952 47.3051L42.74 48.3313C42.6677 48.3816 42.6061 48.4457 42.5587 48.5199C42.5113 48.594 42.479 48.6769 42.4637 48.7636C42.4485 48.8503 42.4505 48.9391 42.4697 49.0251C42.4889 49.111 42.5249 49.1923 42.5756 49.2642C42.6264 49.3362 42.6908 49.3974 42.7653 49.4443C42.8398 49.4913 42.9228 49.523 43.0096 49.5377C43.0964 49.5525 43.1853 49.5499 43.2711 49.5302C43.3569 49.5104 43.4379 49.4739 43.5095 49.4227L44.9648 48.3965C45.0371 48.3462 45.0987 48.2822 45.1461 48.208C45.1935 48.1338 45.2257 48.051 45.241 47.9642C45.2563 47.8775 45.2543 47.7887 45.2351 47.7028C45.2158 47.6168 45.1798 47.5356 45.1291 47.4636C45.0784 47.3917 45.0139 47.3305 44.9394 47.2835C44.865 47.2366 44.7819 47.2048 44.6951 47.1901C44.6083 47.1753 44.5195 47.1779 44.4337 47.1977C44.3479 47.2174 44.2668 47.2539 44.1952 47.3051Z" fill="#404C6C"/>
<path d="M52.9266 41.1479L51.4717 42.1741C51.3988 42.2241 51.3365 42.2881 51.2885 42.3623C51.2405 42.4366 51.2077 42.5197 51.192 42.6067C51.1764 42.6938 51.1782 42.783 51.1974 42.8694C51.2165 42.9557 51.2526 43.0374 51.3036 43.1096C51.3545 43.1819 51.4193 43.2433 51.4942 43.2904C51.5691 43.3374 51.6526 43.3691 51.7399 43.3835C51.8271 43.398 51.9163 43.3951 52.0024 43.3748C52.0885 43.3545 52.1697 43.3173 52.2413 43.2654L53.6965 42.2393C53.7688 42.189 53.8304 42.1249 53.8778 42.0507C53.9252 41.9766 53.9575 41.8937 53.9727 41.807C53.988 41.7203 53.986 41.6315 53.9668 41.5455C53.9476 41.4596 53.9116 41.3783 53.8608 41.3064C53.8101 41.2344 53.7456 41.1732 53.6712 41.1263C53.5967 41.0793 53.5137 41.0476 53.4269 41.0329C53.3401 41.0181 53.2512 41.0207 53.1654 41.0404C53.0796 41.0602 52.9986 41.0967 52.9269 41.1479H52.9266Z" fill="#404C6C"/>
<path d="M37.2577 7.52818C37.0912 7.4679 36.9077 7.47619 36.7473 7.55122C36.587 7.62624 36.463 7.76186 36.4026 7.92827L35.9632 9.13968C35.9329 9.22222 35.9192 9.30993 35.9228 9.3978C35.9265 9.48566 35.9474 9.57193 35.9845 9.65166C36.0216 9.7314 36.0741 9.80303 36.1389 9.86243C36.2037 9.92183 36.2797 9.96785 36.3623 9.99782C36.445 10.0278 36.5328 10.0412 36.6206 10.0371C36.7085 10.0331 36.7947 10.0117 36.8742 9.97431C36.9538 9.93688 37.0252 9.8841 37.0843 9.81901C37.1434 9.75391 37.1891 9.67778 37.2187 9.59498L37.6581 8.38368C37.688 8.30121 37.7014 8.21367 37.6974 8.12604C37.6935 8.03841 37.6723 7.95241 37.6351 7.87297C37.598 7.79352 37.5455 7.72218 37.4807 7.66302C37.4159 7.60386 37.3402 7.55804 37.2577 7.52818Z" fill="#404C6C"/>
<path d="M38.3145 6.57283L40.0268 1.85127C40.0571 1.76874 40.0709 1.68102 40.0672 1.59316C40.0636 1.5053 40.0426 1.41902 40.0055 1.33929C39.9684 1.25955 39.916 1.18793 39.8511 1.12852C39.7863 1.06912 39.7104 1.02311 39.6277 0.993129C39.545 0.963149 39.4573 0.949794 39.3694 0.953828C39.2816 0.957863 39.1954 0.979209 39.1158 1.01664C39.0362 1.05407 38.9648 1.10685 38.9057 1.17195C38.8466 1.23704 38.8009 1.31318 38.7713 1.39598L37.0593 6.11731C37.0294 6.19975 37.016 6.28727 37.02 6.37487C37.0239 6.46248 37.045 6.54845 37.0822 6.62788C37.1193 6.70732 37.1717 6.77866 37.2365 6.83783C37.3012 6.89701 37.3769 6.94285 37.4593 6.97276C37.5418 7.00266 37.6293 7.01603 37.7169 7.01211C37.8045 7.00819 37.8905 6.98705 37.9699 6.94991C38.0494 6.91276 38.1207 6.86033 38.1799 6.79561C38.239 6.73089 38.2849 6.65515 38.3148 6.57272L38.3145 6.57283Z" fill="#404C6C"/>
<path d="M42.5402 3.27014L40.8533 7.92214C40.7929 8.08863 40.8011 8.27229 40.8761 8.43271C40.9511 8.59314 41.0868 8.71719 41.2533 8.77758C41.4198 8.83798 41.6034 8.82976 41.7639 8.75473C41.9243 8.67971 42.0483 8.54403 42.1087 8.37755L43.7957 3.72555C43.8561 3.55906 43.8479 3.3754 43.7728 3.21497C43.6978 3.05455 43.5621 2.93049 43.3957 2.8701C43.2292 2.80971 43.0455 2.81793 42.8851 2.89295C42.7247 2.96797 42.6006 3.10365 42.5402 3.27014Z" fill="#404C6C"/>
<path d="M43.6165 2.26131C43.699 2.29129 43.7865 2.30473 43.8741 2.30084C43.9618 2.29696 44.0478 2.27583 44.1272 2.23867C44.2067 2.2015 44.278 2.14904 44.3372 2.08427C44.3963 2.0195 44.4421 1.9437 44.4719 1.86121L44.8253 0.887075C44.883 0.72125 44.873 0.539387 44.7976 0.380852C44.7221 0.222318 44.5873 0.0998684 44.4222 0.0400101C44.2572 -0.0198482 44.0752 -0.012299 43.9157 0.0610237C43.7562 0.134346 43.632 0.267543 43.5699 0.43178L43.2166 1.40581C43.1866 1.48824 43.1733 1.57576 43.1772 1.66337C43.1811 1.75098 43.2022 1.83696 43.2394 1.9164C43.2765 1.99584 43.3289 2.06719 43.3936 2.12637C43.4584 2.18555 43.5341 2.2314 43.6165 2.26131Z" fill="#404C6C"/>
<path d="M44.2304 12.835C44.3129 12.8649 44.4004 12.8783 44.488 12.8744C44.5756 12.8704 44.6616 12.8493 44.741 12.8121C44.8205 12.775 44.8918 12.7226 44.951 12.6578C45.0102 12.5931 45.056 12.5173 45.0859 12.4349L45.5252 11.2236C45.5856 11.0571 45.5774 10.8734 45.5023 10.713C45.4273 10.5526 45.2916 10.4285 45.1251 10.3681C44.9587 10.3078 44.775 10.316 44.6146 10.391C44.4541 10.466 44.3301 10.6017 44.2697 10.7682L43.8303 11.9795C43.8004 12.0619 43.787 12.1495 43.791 12.2371C43.7949 12.3247 43.816 12.4107 43.8532 12.4901C43.8903 12.5696 43.9428 12.6409 44.0075 12.7001C44.0722 12.7592 44.148 12.8051 44.2304 12.835Z" fill="#404C6C"/>
<path d="M46.1819 9.41394L47.8942 4.69294C47.9242 4.6105 47.9376 4.52297 47.9337 4.43535C47.9299 4.34772 47.9088 4.26171 47.8717 4.18224C47.8346 4.10276 47.7822 4.03137 47.7175 3.97214C47.6528 3.91291 47.577 3.86701 47.4946 3.83705C47.4122 3.80709 47.3246 3.79366 47.237 3.79752C47.1494 3.80139 47.0634 3.82248 46.9839 3.85959C46.9044 3.89669 46.833 3.94909 46.7738 4.01378C46.7146 4.07848 46.6687 4.15421 46.6387 4.23664L44.9264 8.95853C44.8965 9.04097 44.8831 9.12849 44.887 9.21609C44.8909 9.3037 44.9121 9.38967 44.9492 9.46911C44.9864 9.54854 45.0388 9.61988 45.1035 9.67906C45.1682 9.73823 45.244 9.78408 45.3264 9.81398C45.4089 9.84388 45.4964 9.85725 45.584 9.85333C45.6716 9.84941 45.7575 9.82828 45.837 9.79113C45.9164 9.75398 45.9878 9.70155 46.0469 9.63683C46.1061 9.57212 46.152 9.49638 46.1819 9.41394Z" fill="#404C6C"/>
<path d="M4.42855 14.596C4.56603 14.596 4.70016 14.5536 4.81262 14.4745C4.92508 14.3954 5.01039 14.2836 5.0569 14.1542L5.33202 13.3895L10.6114 15.7676C12.1064 16.5285 13.7503 16.952 15.4269 17.0083L16.6563 17.0478C16.333 17.3846 16.0941 17.7931 15.9589 18.2399C15.8238 18.6867 15.7964 19.1592 15.8788 19.6186C15.9132 19.8064 15.988 19.9843 16.0982 20.1401C16.2084 20.2959 16.3512 20.4259 16.5167 20.5208C16.6822 20.6158 16.8665 20.6735 17.0566 20.69C17.2467 20.7065 17.4381 20.6813 17.6175 20.6163C17.6315 20.6111 17.6455 20.6051 17.6591 20.5996L19.6499 19.7237L18.9711 21.5956C18.8454 21.9421 18.7893 22.31 18.8059 22.6783C18.8226 23.0465 18.9116 23.4078 19.068 23.7416C19.2244 24.0754 19.445 24.3751 19.7173 24.6235C19.9896 24.8719 20.3082 25.0643 20.6549 25.1895L45.2336 34.0649C45.9326 34.3173 46.7032 34.282 47.3762 33.9667C48.0492 33.6514 48.5695 33.0818 48.8229 32.3832L53.0562 20.7101C53.1818 20.3635 53.2379 19.9955 53.2212 19.6273C53.2046 19.259 53.1154 18.8976 52.959 18.5638C52.8025 18.23 52.5817 17.9303 52.3093 17.6819C52.0369 17.4335 51.7182 17.2413 51.3715 17.1161L27.7626 8.59118L23.1128 3.81853C22.7361 3.3871 22.2429 3.07365 21.6923 2.9159C21.1418 2.75815 20.5574 2.7628 20.0094 2.92931C15.0692 4.4411 10.4475 4.40783 8.5961 4.31445L8.77951 3.80473C8.81115 3.71672 8.82394 3.62304 8.81707 3.52976C8.81019 3.43648 8.7838 3.34569 8.73959 3.26326C8.69539 3.18083 8.63436 3.10861 8.56047 3.05128C8.48657 2.99394 8.40146 2.95277 8.31063 2.93043L2.57131 1.51835C2.48123 1.4962 2.38753 1.49305 2.29616 1.50911C2.2048 1.52518 2.11779 1.5601 2.04067 1.61166C1.96356 1.66322 1.89803 1.73028 1.84826 1.80856C1.7985 1.88685 1.7656 1.97465 1.75165 2.06636L0.16251 12.4997C0.139361 12.6518 0.169447 12.8073 0.247682 12.9398C0.325917 13.0722 0.447499 13.1736 0.591874 13.2268L4.19773 14.5549C4.27163 14.5821 4.34978 14.5961 4.42855 14.596ZM17.1873 19.3482C17.1397 19.0506 17.1762 18.7457 17.2927 18.4677C17.4092 18.1898 17.601 17.9499 17.8465 17.7751L18.7175 17.157C19.2132 17.2185 19.7037 17.3168 20.1848 17.4511L20.4475 17.5246L20.2796 17.9875L17.1873 19.3482ZM26.3398 9.4972L50.9185 18.3726C51.1001 18.4382 51.267 18.5389 51.4096 18.6691C51.5523 18.7992 51.6679 18.9562 51.7498 19.131C51.8317 19.3058 51.8784 19.4951 51.8871 19.688C51.8958 19.8809 51.8664 20.0736 51.8006 20.2551L47.5671 31.9277C47.4339 32.2934 47.1613 32.5913 46.8089 32.7564C46.4566 32.9215 46.0532 32.9403 45.687 32.8086L21.1084 23.9332C20.9268 23.8676 20.7599 23.7669 20.6173 23.6368C20.4746 23.5066 20.3591 23.3497 20.2771 23.1748C20.1952 23 20.1485 22.8107 20.1398 22.6178C20.1311 22.4249 20.1605 22.2322 20.2263 22.0507L21.7371 17.8848L22.5845 18.1217L22.4269 18.5446C22.3567 18.7505 22.371 18.9759 22.4666 19.1714C22.5622 19.3668 22.7314 19.5164 22.9371 19.5875L22.9461 19.5906C24.2013 20.0592 24.6433 20.6543 23.9487 22.9252C23.8847 23.1214 23.898 23.3346 23.9858 23.5214C24.0735 23.7081 24.2292 23.8544 24.421 23.9304L42.5147 30.6615C42.5996 30.693 42.6893 30.7092 42.7798 30.7091C42.9395 30.707 43.0951 30.6587 43.228 30.5702C43.3608 30.4816 43.4652 30.3565 43.5286 30.21C44.3077 28.4515 44.9191 27.7652 46.4797 28.3454C46.4836 28.3469 46.4879 28.3484 46.4921 28.3499C46.6933 28.4272 46.9168 28.4224 47.1145 28.3366C47.3123 28.2507 47.4684 28.0907 47.5494 27.891L49.2889 23.2272C49.3246 23.1309 49.3409 23.0286 49.3368 22.926C49.3327 22.8234 49.3083 22.7227 49.2649 22.6296C49.1692 22.4257 48.9979 22.2671 48.7873 22.1873C48.7838 22.1858 48.7804 22.1846 48.7769 22.1834C47.0799 21.552 47.1263 20.8297 47.6725 19.076C47.7301 18.8667 47.7058 18.6432 47.6045 18.4512C47.5032 18.2592 47.3325 18.113 47.1271 18.0425L29.1918 11.3704C28.9908 11.2909 28.7672 11.2907 28.5661 11.3698C28.3649 11.4488 28.2013 11.6013 28.1083 11.7964C27.4065 13.4022 26.875 13.9747 25.5502 13.6049L23.5305 12.9396L24.4596 10.3774C24.5928 10.0119 24.8654 9.71395 25.2178 9.54892C25.5701 9.38389 25.9735 9.36518 26.3396 9.49687L26.3398 9.4972ZM29.0561 15.6654C28.8351 15.1478 28.4483 14.7183 27.9565 14.4445C28.462 14.0179 28.8267 13.4109 29.1314 12.7726L46.2563 19.143C45.872 20.4735 45.6124 22.1995 47.8564 23.2453L46.4774 26.9429C44.1235 26.3112 43.0861 27.9938 42.5043 29.2327L25.3626 22.8557C25.7344 21.5388 26.0526 19.5886 23.858 18.5286L23.8752 18.4826L25.9898 19.0736C26.4502 19.2137 26.941 19.2195 27.4046 19.0905C27.8683 18.9614 28.2855 18.7028 28.6073 18.345C28.9291 17.9872 29.1422 17.545 29.2216 17.0704C29.301 16.5957 29.2433 16.1083 29.0554 15.6652L29.0561 15.6654ZM20.3998 4.20639C20.7036 4.11436 21.0277 4.1127 21.3324 4.20163C21.6371 4.29055 21.9094 4.46621 22.1161 4.7072C22.1248 4.71733 22.134 4.72734 22.1434 4.73691L25.4259 8.10605C24.9264 8.18102 24.4564 8.38935 24.0653 8.70909C23.6743 9.02882 23.3768 9.44812 23.2042 9.92278L22.8832 10.8079C21.7466 10.9604 20.5944 10.9549 19.4594 10.7915L19.1996 10.4146C19.1506 10.3408 19.0873 10.2776 19.0135 10.2286C18.9397 10.1795 18.8569 10.1456 18.77 10.1289C18.683 10.1122 18.5935 10.1129 18.5068 10.1311C18.4201 10.1493 18.3379 10.1845 18.2649 10.2348C18.192 10.285 18.1298 10.3493 18.0819 10.4239C18.034 10.4984 18.0015 10.5817 17.9862 10.669C17.9708 10.7562 17.973 10.8457 17.9925 10.9321C18.0121 11.0185 18.0487 11.1001 18.1001 11.1723L18.523 11.7857C19.0525 12.5503 19.8164 13.1219 20.6994 13.414L27.1365 15.5327C27.2906 15.5887 27.4315 15.6759 27.5503 15.7888C27.6692 15.9017 27.7635 16.038 27.8273 16.189C27.8911 16.34 27.9231 16.5025 27.9213 16.6665C27.9194 16.8304 27.8838 16.9922 27.8166 17.1417C27.6962 17.4073 27.4832 17.6199 27.2175 17.74C26.9517 17.86 26.6514 17.8793 26.3725 17.7941L26.3569 17.7896L20.5441 16.1647C19.6635 15.9188 18.7566 15.7795 17.8429 15.7498L15.4696 15.6735C13.9845 15.6237 12.5285 15.2475 11.2051 14.5717C11.1951 14.5664 11.1849 14.5617 11.1747 14.557L5.7852 12.129L8.12411 5.62636C9.74307 5.74166 14.8132 5.91616 20.3998 4.20639ZM22.3756 12.2072L22.2613 12.5222L21.4404 12.252C21.7881 12.247 22.1025 12.2298 22.3756 12.2072ZM1.5649 12.1621L2.96195 2.99008L7.27195 4.05002L4.0279 13.0691L1.5649 12.1621Z" fill="#404C6C"/>
<path d="M34.2241 25.5082C34.7258 25.6898 35.2553 25.7828 35.7888 25.7829C36.5759 25.781 37.3498 25.5808 38.039 25.2008C38.7283 24.8209 39.3107 24.2734 39.7326 23.6089C40.1545 22.9445 40.4021 22.1845 40.4528 21.3991C40.5034 20.6136 40.3554 19.8281 40.0224 19.115C39.7662 18.5636 39.4031 18.0685 38.9542 17.6585C38.5052 17.2485 37.9793 16.9318 37.407 16.7266C36.5376 16.4192 35.5968 16.3756 34.7026 16.6012C33.8085 16.8268 33.001 17.3116 32.3815 17.9946C31.762 18.6777 31.3581 19.5286 31.2206 20.4404C31.0831 21.3522 31.2182 22.2844 31.6087 23.1197C31.8649 23.6711 32.228 24.1661 32.677 24.5761C33.1259 24.9861 33.6518 25.3029 34.2241 25.5082ZM32.7052 19.9952C32.9384 19.3501 33.3643 18.7923 33.9252 18.3974C34.486 18.0024 35.1547 17.7895 35.8407 17.7873C36.4649 17.7879 37.0761 17.9665 37.6025 18.3019C38.1289 18.6374 38.5489 19.116 38.8131 19.6816C39.0916 20.2778 39.188 20.943 39.0902 21.5938C38.9923 22.2446 38.7046 22.852 38.2631 23.34C37.8215 23.828 37.2458 24.1748 36.608 24.3371C35.9702 24.4993 35.2987 24.4697 34.6777 24.252C34.2707 24.106 33.8967 23.8806 33.5775 23.589C33.2583 23.2973 33.0001 22.9452 32.818 22.553C32.6308 22.1554 32.5245 21.7245 32.5051 21.2854C32.4857 20.8464 32.5537 20.4078 32.7052 19.9952Z" fill="#404C6C"/>
<path d="M19.4696 6.87822C19.5278 6.87838 19.5859 6.8709 19.6422 6.85596C19.8759 6.79364 20.112 6.72775 20.3433 6.66042C20.5133 6.61087 20.6567 6.49582 20.7419 6.34056C20.8271 6.18529 20.8471 6.00255 20.7976 5.83252C20.7481 5.66249 20.633 5.5191 20.4777 5.43391C20.3225 5.34871 20.1397 5.32868 19.9697 5.37822C19.7483 5.44277 19.5223 5.50577 19.2981 5.56564C19.1412 5.60718 19.0049 5.70439 18.9145 5.83911C18.8241 5.97383 18.7859 6.13685 18.8069 6.29771C18.8279 6.45858 18.9068 6.60628 19.0288 6.71323C19.1508 6.82018 19.3075 6.87907 19.4698 6.87888L19.4696 6.87822Z" fill="#404C6C"/>
<path d="M11.2294 8.01961H11.2436C13.3466 7.97712 15.442 7.75285 17.5063 7.3493C17.6801 7.31509 17.8332 7.21325 17.9318 7.06619C18.0305 6.91913 18.0667 6.7389 18.0325 6.56513C17.9983 6.39137 17.8965 6.23831 17.7494 6.13963C17.6024 6.04096 17.4221 6.00474 17.2484 6.03895C15.2598 6.42757 13.2414 6.64353 11.2156 6.68444C11.0385 6.68627 10.8694 6.75838 10.7454 6.8849C10.6215 7.01142 10.5529 7.18199 10.5547 7.35909C10.5566 7.53619 10.6287 7.70531 10.7552 7.82924C10.8817 7.95317 11.0523 8.02177 11.2294 8.01994V8.01961Z" fill="#404C6C"/>
</svg>
