<svg width="54" height="54" viewBox="0 0 54 54" fill="none" xmlns="http://www.w3.org/2000/svg">
<path d="M41.4424 4.60428H39.456V2.46454C39.456 1.10558 38.3504 0 36.9915 0H14.9973C14.5628 0 14.2107 0.352062 14.2107 0.786555C14.2107 1.22105 14.5628 1.57311 14.9973 1.57311H36.9915C37.483 1.57311 37.8829 1.97299 37.8829 2.46454V4.60428H6.91539C5.55643 4.60428 4.45085 5.70986 4.45085 7.06882V47.518H2.46454C1.97299 47.518 1.57311 47.1181 1.57311 46.6266V2.46454C1.57311 1.97299 1.97299 1.57311 2.46454 1.57311H11.3179C11.7524 1.57311 12.1045 1.22105 12.1045 0.786555C12.1045 0.352062 11.7524 0 11.3179 0H2.46454C1.10558 0 0 1.10558 0 2.46454V46.6267C0 47.9856 1.10558 49.0912 2.46454 49.0912H4.45085V51.2309C4.45085 52.5899 5.55643 53.6955 6.91539 53.6955H41.4424C42.8014 53.6955 43.907 52.5899 43.907 51.2309V7.06882C43.907 5.70986 42.8014 4.60428 41.4424 4.60428ZM42.3339 51.2309C42.3339 51.7225 41.934 52.1224 41.4424 52.1224H6.91539C6.42385 52.1224 6.02396 51.7225 6.02396 51.2309C6.02396 50.7208 6.02396 7.58732 6.02396 7.06882C6.02396 6.57728 6.42385 6.17739 6.91539 6.17739H41.4424C41.934 6.17739 42.3339 6.57728 42.3339 7.06882V51.2309Z" fill="#404C6C"/>
<path d="M13.7322 11.0361C12.0031 11.0361 10.5964 12.4428 10.5964 14.1719C10.5964 15.9009 12.0031 17.3076 13.7322 17.3076C15.4611 17.3076 16.8678 15.9009 16.8678 14.1719C16.8678 12.4428 15.4612 11.0361 13.7322 11.0361ZM13.7322 15.7346C12.8705 15.7346 12.1695 15.0335 12.1695 14.172C12.1695 13.3104 12.8706 12.6093 13.7322 12.6093C14.5937 12.6093 15.2947 13.3104 15.2947 14.172C15.2947 15.0335 14.5938 15.7346 13.7322 15.7346Z" fill="#404C6C"/>
<path d="M36.975 11.7451H19.4284C18.9939 11.7451 18.6418 12.0972 18.6418 12.5317C18.6418 12.9662 18.9939 13.3182 19.4284 13.3182H36.9751C37.4096 13.3182 37.7616 12.9662 37.7616 12.5317C37.7616 12.0972 37.4095 11.7451 36.975 11.7451Z" fill="#404C6C"/>
<path d="M19.4284 16.6005H33.1749C33.6094 16.6005 33.9614 16.2484 33.9614 15.8139C33.9614 15.3794 33.6094 15.0273 33.1749 15.0273H19.4284C18.9939 15.0273 18.6418 15.3794 18.6418 15.8139C18.6418 16.2484 18.9939 16.6005 19.4284 16.6005Z" fill="#404C6C"/>
<path d="M13.7322 21.1436C12.0031 21.1436 10.5964 22.5502 10.5964 24.2793C10.5964 26.0083 12.0031 27.415 13.7322 27.415C15.4611 27.415 16.8678 26.0083 16.8678 24.2793C16.8678 22.5502 15.4612 21.1436 13.7322 21.1436ZM13.7322 25.842C12.8705 25.842 12.1695 25.1409 12.1695 24.2794C12.1695 23.4179 12.8706 22.7168 13.7322 22.7168C14.5937 22.7168 15.2947 23.4179 15.2947 24.2794C15.2947 25.1409 14.5938 25.842 13.7322 25.842Z" fill="#404C6C"/>
<path d="M36.975 21.8525H19.4284C18.9939 21.8525 18.6418 22.2046 18.6418 22.6391C18.6418 23.0736 18.9939 23.4256 19.4284 23.4256H36.9751C37.4096 23.4256 37.7616 23.0736 37.7616 22.6391C37.7616 22.2046 37.4095 21.8525 36.975 21.8525Z" fill="#404C6C"/>
<path d="M19.4284 26.7079H33.1749C33.6094 26.7079 33.9614 26.3558 33.9614 25.9213C33.9614 25.4868 33.6094 25.1348 33.1749 25.1348H19.4284C18.9939 25.1348 18.6418 25.4868 18.6418 25.9213C18.6418 26.3558 18.9939 26.7079 19.4284 26.7079Z" fill="#404C6C"/>
<path d="M13.7322 31.251C12.0031 31.251 10.5964 32.6577 10.5964 34.3867C10.5964 36.1158 12.0031 37.5224 13.7322 37.5224C15.4611 37.5224 16.8678 36.1158 16.8678 34.3867C16.8678 32.6577 15.4612 31.251 13.7322 31.251ZM13.7322 35.9494C12.8705 35.9494 12.1695 35.2484 12.1695 34.3868C12.1695 33.5253 12.8706 32.8242 13.7322 32.8242C14.5937 32.8242 15.2947 33.5253 15.2947 34.3868C15.2947 35.2484 14.5938 35.9494 13.7322 35.9494Z" fill="#404C6C"/>
<path d="M36.975 31.96H19.4284C18.9939 31.96 18.6418 32.312 18.6418 32.7465C18.6418 33.181 18.9939 33.5331 19.4284 33.5331H36.9751C37.4096 33.5331 37.7616 33.181 37.7616 32.7465C37.7616 32.312 37.4095 31.96 36.975 31.96Z" fill="#404C6C"/>
<path d="M19.4284 36.8143H33.1749C33.6094 36.8143 33.9614 36.4623 33.9614 36.0278C33.9614 35.5933 33.6094 35.2412 33.1749 35.2412H19.4284C18.9939 35.2412 18.6418 35.5933 18.6418 36.0278C18.6418 36.4623 18.9939 36.8143 19.4284 36.8143Z" fill="#404C6C"/>
<path d="M13.7322 41.3594C12.0031 41.3594 10.5964 42.766 10.5964 44.4951C10.5964 46.2242 12.0031 47.6308 13.7322 47.6308C15.4611 47.6308 16.8678 46.2242 16.8678 44.4951C16.8678 42.766 15.4612 41.3594 13.7322 41.3594ZM13.7322 46.0578C12.8705 46.0578 12.1695 45.3568 12.1695 44.4952C12.1695 43.6337 12.8706 42.9326 13.7322 42.9326C14.5937 42.9326 15.2947 43.6337 15.2947 44.4952C15.2947 45.3568 14.5938 46.0578 13.7322 46.0578Z" fill="#404C6C"/>
<path d="M36.975 42.0674H19.4284C18.9939 42.0674 18.6418 42.4194 18.6418 42.8539C18.6418 43.2884 18.9939 43.6405 19.4284 43.6405H36.9751C37.4096 43.6405 37.7616 43.2884 37.7616 42.8539C37.7616 42.4194 37.4095 42.0674 36.975 42.0674Z" fill="#404C6C"/>
<path d="M33.1749 45.3496H19.4284C18.9939 45.3496 18.6418 45.7017 18.6418 46.1362C18.6418 46.5707 18.9939 46.9227 19.4284 46.9227H33.1749C33.6094 46.9227 33.9614 46.5707 33.9614 46.1362C33.9614 45.7017 33.6093 45.3496 33.1749 45.3496Z" fill="#404C6C"/>
<path d="M49.5 46L52.5 40V16L51.5 14.5H49L47 15L46.5 16.5V40L49.5 46Z" fill="#BFE6FE"/>
<path d="M51.0409 13.7051H48.0095C46.7853 13.7051 45.7411 14.8583 45.7413 16.3882C45.7413 17.5158 45.7412 28.5114 45.7412 30.2534C45.7412 30.6878 46.0933 29.4668 46.5278 29.4668C46.9623 29.4668 47.3143 30.6878 47.3143 30.2534V20.0573H51.736V39.1395H47.3143V30.2534C47.3143 29.8189 46.9623 29.4668 46.5278 29.4668C46.0933 29.4668 45.7412 29.8189 45.7412 30.2534V39.9261C45.7412 40.0226 45.762 40.1369 45.8059 40.2384L48.3347 46.0673C48.8199 47.1861 50.231 47.1846 50.7155 46.0675L53.2441 40.2392L53.2447 40.2376C53.2885 40.1362 53.3091 40.0228 53.3091 39.9261C53.3091 39.1148 53.3091 16.8903 53.3091 16.3882C53.3091 14.9086 52.2916 13.7051 51.0409 13.7051ZM47.3144 18.4842V16.3881C47.3144 15.7609 47.6676 15.2782 48.0095 15.2782H51.0409C51.3697 15.2782 51.736 15.7341 51.736 16.3882V18.4842H47.3144ZM49.5252 44.8585L47.7265 40.7126H51.324L49.5252 44.8585Z" fill="#404C6C"/>
</svg>
