<svg width="47" height="54" viewBox="0 0 47 54" fill="none" xmlns="http://www.w3.org/2000/svg">
<path d="M36.7432 12.0811L39.0261 8.11001C39.1305 7.92844 39.1584 7.71288 39.1038 7.51071C39.0492 7.30854 38.9166 7.13633 38.7351 7.03195L35.5072 5.17773C35.3256 5.07344 35.11 5.04556 34.9078 5.10023C34.7056 5.15489 34.5335 5.28763 34.4292 5.46924L32.1499 9.43625C30.0947 8.54977 27.9205 7.96989 25.6969 7.71516V5.30138H27.2988C27.5083 5.30138 27.7091 5.21818 27.8572 5.07008C28.0053 4.92198 28.0885 4.72112 28.0885 4.51168V0.789701C28.0886 0.68598 28.0682 0.583263 28.0285 0.487425C27.9889 0.391588 27.9307 0.304508 27.8574 0.231166C27.784 0.157824 27.697 0.099657 27.6011 0.0599918C27.5053 0.0203266 27.4026 -5.91913e-05 27.2988 1.2909e-07H18.7935C18.6898 -5.91913e-05 18.5871 0.0203266 18.4913 0.0599918C18.3954 0.099657 18.3083 0.157824 18.235 0.231166C18.1617 0.304508 18.1035 0.391588 18.0638 0.487425C18.0242 0.583263 18.0038 0.68598 18.0038 0.789701V4.51168C18.0038 4.72112 18.087 4.92198 18.2351 5.07008C18.3832 5.21818 18.5841 5.30138 18.7935 5.30138H20.3955V7.7129C18.1719 7.96763 15.9977 8.54752 13.9425 9.434L11.6632 5.46699C11.6116 5.37702 11.5428 5.2981 11.4607 5.23475C11.3785 5.1714 11.2847 5.12486 11.1846 5.09779C11.0845 5.07071 10.98 5.06364 10.8771 5.07697C10.7743 5.0903 10.6751 5.12377 10.5852 5.17548L7.35731 7.02969C7.17577 7.13408 7.04313 7.30629 6.98855 7.50845C6.93396 7.71062 6.96191 7.92619 7.06625 8.10775L9.34916 12.0811C5.44796 14.9641 2.55595 19.0046 1.08503 23.6272C-0.38588 28.2497 -0.360684 33.2185 1.15703 37.8258C2.67475 42.4332 5.60758 46.4442 9.53782 49.2875C13.4681 52.1308 18.1953 53.6615 23.0462 53.6615C27.8971 53.6615 32.6243 52.1308 36.5546 49.2875C40.4848 46.4442 43.4176 42.4332 44.9353 37.8258C46.4531 33.2185 46.4783 28.2497 45.0073 23.6272C43.5364 19.0046 40.6444 14.9641 36.7432 12.0811ZM35.4052 6.93674L37.2631 8.00667L35.4364 11.1862C34.8347 10.8018 34.216 10.445 33.5803 10.1158L35.4052 6.93674ZM19.5832 1.5794H26.5091V3.72197H19.5832V1.5794ZM21.9749 5.30138H24.1175V7.58339C23.7623 7.56669 23.4072 7.55541 23.0462 7.55541C22.6852 7.55541 22.33 7.56624 21.9749 7.58294V5.30138ZM8.82931 8.00667L10.6871 6.93944L12.512 10.1158C11.8758 10.4444 11.2571 10.8012 10.656 11.1862L8.82931 8.00667ZM23.0462 52.0688C18.8004 52.0688 14.65 50.8098 11.1198 48.451C7.58963 46.0922 4.83818 42.7395 3.21342 38.8169C1.58866 34.8944 1.16358 30.5781 1.99191 26.4139C2.82025 22.2498 4.86481 18.4247 7.86704 15.4226C10.8693 12.4204 14.6943 10.3759 18.8585 9.54769C23.0227 8.71944 27.3389 9.14462 31.2615 10.7695C35.184 12.3943 38.5366 15.1458 40.8954 18.6761C43.2541 22.2063 44.5131 26.3568 44.513 30.6025C44.5064 36.2938 42.2426 41.7501 38.2182 45.7744C34.1938 49.7987 28.7375 52.0624 23.0462 52.0688Z" fill="#404C6C"/>
<circle cx="23" cy="31" r="17" fill="#BFE6FE"/>
<path d="M38.5731 39.4867C40.1348 36.7688 40.9526 33.6873 40.9441 30.5527C40.9355 27.4181 40.1009 24.3411 38.5243 21.6318C38.5139 21.6048 38.5018 21.5784 38.4882 21.5528C38.4742 21.5317 38.4591 21.5114 38.4431 21.4919C36.8894 18.878 34.6996 16.6998 32.0777 15.1598C32.0561 15.1421 32.0335 15.1256 32.01 15.1106C31.9844 15.0974 31.958 15.0856 31.931 15.0754C29.2133 13.5136 26.132 12.6957 22.9975 12.7042C19.863 12.7126 16.7862 13.5472 14.077 15.1237C14.0495 15.1346 14.0227 15.1469 13.9967 15.1607C13.9759 15.1747 13.9559 15.1898 13.9366 15.2059C11.3224 16.7595 9.14371 18.9493 7.60324 21.5713C7.56582 21.614 7.53728 21.6637 7.5193 21.7175C5.95752 24.4353 5.1397 27.5167 5.14826 30.6513C5.15682 33.7858 5.99145 36.8628 7.56804 39.572C7.57858 39.5991 7.59064 39.6256 7.60414 39.6514C7.61407 39.6685 7.62896 39.6812 7.63979 39.6965C9.19371 42.3166 11.3863 44.5001 14.0129 46.043C14.035 46.061 14.058 46.0777 14.0819 46.0931C14.1018 46.1044 14.1235 46.1089 14.1438 46.1188C16.8664 47.687 19.9549 48.5081 23.0968 48.4992C26.2387 48.4902 29.3225 47.6515 32.0361 46.0678C32.0555 46.0584 32.0763 46.0543 32.0953 46.043C32.1142 46.0317 32.135 46.0137 32.1553 45.9979C34.7754 44.4408 36.958 42.2449 38.4991 39.6153C38.5112 39.5977 38.5266 39.5846 38.5374 39.5657C38.551 39.5402 38.5629 39.5138 38.5731 39.4867ZM31.9644 44.2574L30.9495 42.5277C30.8436 42.347 30.6702 42.2158 30.4675 42.1629C30.2649 42.11 30.0495 42.1398 29.8687 42.2457C29.688 42.3516 29.5568 42.525 29.5039 42.7276C29.451 42.9303 29.4808 43.1457 29.5867 43.3264L30.6029 45.0602C28.5083 46.1612 26.1978 46.7899 23.8341 46.9022V44.8873C23.8341 44.6779 23.7509 44.477 23.6028 44.3289C23.4547 44.1808 23.2538 44.0976 23.0444 44.0976C22.8349 44.0976 22.6341 44.1808 22.486 44.3289C22.3379 44.477 22.2547 44.6779 22.2547 44.8873V46.9022C19.9225 46.7903 17.6421 46.1755 15.5697 45.0999L16.576 43.3612C16.6777 43.1801 16.7039 42.9663 16.649 42.7661C16.5942 42.5658 16.4626 42.3952 16.2829 42.2912C16.1032 42.1872 15.8898 42.1582 15.6888 42.2104C15.4879 42.2626 15.3156 42.3918 15.2092 42.5701L14.2042 44.307C12.2842 43.0635 10.6448 41.4331 9.39067 39.5201L11.1221 38.5057C11.3019 38.3993 11.4322 38.2261 11.4845 38.0239C11.5368 37.8217 11.507 37.6071 11.4014 37.4269C11.2958 37.2467 11.1232 37.1156 10.9213 37.0624C10.7193 37.0092 10.5045 37.0381 10.3239 37.1429L8.59014 38.1591C7.48896 36.0645 6.86006 33.754 6.74765 31.3902H8.76252C8.97196 31.3902 9.17282 31.307 9.32092 31.1589C9.46902 31.0108 9.55222 30.81 9.55222 30.6005C9.55222 30.3911 9.46902 30.1902 9.32092 30.0421C9.17282 29.894 8.97196 29.8108 8.76252 29.8108H6.74765C6.859 27.4782 7.47335 25.1971 8.54862 23.1241L10.2878 24.1299C10.4687 24.2295 10.6814 24.2542 10.8804 24.1987C11.0793 24.1433 11.2486 24.0122 11.352 23.8334C11.4554 23.6546 11.4846 23.4425 11.4335 23.2424C11.3823 23.0424 11.2549 22.8703 11.0784 22.7631L9.34193 21.7581C10.5853 19.8389 12.2154 18.2 14.128 16.9464L15.1429 18.6778C15.2492 18.8576 15.4224 18.9879 15.6246 19.0402C15.8268 19.0925 16.0414 19.0626 16.2216 18.9571C16.4018 18.8515 16.5329 18.6789 16.5861 18.477C16.6393 18.275 16.6104 18.0602 16.5056 17.8796L15.4894 16.1458C17.584 15.0446 19.8945 14.4158 22.2583 14.3038V16.3182C22.2583 16.5277 22.3415 16.7285 22.4896 16.8766C22.6377 17.0247 22.8385 17.1079 23.048 17.1079C23.2574 17.1079 23.4583 17.0247 23.6064 16.8766C23.7545 16.7285 23.8377 16.5277 23.8377 16.3182V14.3038C26.1703 14.415 28.4513 15.0292 30.5244 16.1043L29.5163 17.8439C29.4627 17.9337 29.4275 18.0333 29.4127 18.1368C29.3979 18.2404 29.4039 18.3458 29.4302 18.447C29.4565 18.5483 29.5026 18.6433 29.5659 18.7265C29.6292 18.8098 29.7084 18.8796 29.7989 18.932C29.8895 18.9844 29.9895 19.0183 30.0932 19.0317C30.1969 19.0451 30.3023 19.0378 30.4031 19.0101C30.504 18.9825 30.5984 18.9351 30.6808 18.8707C30.7632 18.8063 30.832 18.7262 30.8832 18.635L31.8881 16.8963C33.8082 18.14 35.4477 19.7707 36.7017 21.6841L34.9702 22.6985C34.8802 22.7507 34.8015 22.8201 34.7384 22.9028C34.6753 22.9855 34.6292 23.0799 34.6027 23.1804C34.5762 23.281 34.5698 23.3858 34.5839 23.4888C34.5981 23.5919 34.6324 23.6911 34.6849 23.7808C34.7375 23.8706 34.8073 23.9491 34.8902 24.0118C34.9732 24.0745 35.0678 24.1201 35.1684 24.1462C35.2691 24.1723 35.374 24.1782 35.4769 24.1636C35.5799 24.1491 35.679 24.1143 35.7685 24.0613L37.5027 23.0451C38.6035 25.1399 39.2322 27.4503 39.3447 29.814H37.3298C37.1204 29.814 36.9195 29.8972 36.7714 30.0453C36.6233 30.1934 36.5401 30.3942 36.5401 30.6037C36.5401 30.8131 36.6233 31.014 36.7714 31.1621C36.9195 31.3102 37.1204 31.3934 37.3298 31.3934H39.3447C39.2331 33.7254 38.6188 36.0058 37.5437 38.0783L35.805 37.072C35.6237 36.9671 35.4082 36.9385 35.2058 36.9926C35.0034 37.0466 34.8308 37.1788 34.7259 37.3601C34.621 37.5415 34.5924 37.757 34.6464 37.9594C34.7005 38.1618 34.8327 38.3344 35.014 38.4393L36.7504 39.4443C35.5072 41.3641 33.8771 43.0034 31.9644 44.2574Z" fill="#404C6C"/>
<path d="M34.9566 30.6019C34.9566 30.3925 34.8734 30.1916 34.7253 30.0435C34.5772 29.8954 34.3764 29.8122 34.1669 29.8122H26.5632C26.4125 29.1464 26.0763 28.5369 25.5937 28.0542C25.111 27.5715 24.5016 27.2352 23.8358 27.0844V19.4811C23.8358 19.2717 23.7526 19.0708 23.6045 18.9227C23.4564 18.7746 23.2556 18.6914 23.0461 18.6914C22.8367 18.6914 22.6358 18.7746 22.4877 18.9227C22.3396 19.0708 22.2564 19.2717 22.2564 19.4811V27.0844C21.6264 27.2255 21.0458 27.5331 20.5752 27.9752C20.1047 28.4174 19.7615 28.9777 19.5815 29.5978C19.4015 30.2178 19.3912 30.8748 19.5518 31.5002C19.7124 32.1255 20.038 32.6963 20.4945 33.1529C20.951 33.6095 21.5218 33.9351 22.1471 34.0958C22.7725 34.2564 23.4295 34.2463 24.0495 34.0663C24.6696 33.8863 25.23 33.5432 25.6722 33.0727C26.1143 32.6022 26.4221 32.0216 26.5632 31.3916H34.1669C34.3763 31.3915 34.5771 31.3082 34.7252 31.1602C34.8733 31.0121 34.9565 30.8113 34.9566 30.6019ZM23.0461 32.6294C22.645 32.6295 22.2529 32.5106 21.9193 32.2878C21.5857 32.065 21.3257 31.7483 21.1722 31.3777C21.0186 31.0071 20.9784 30.5994 21.0567 30.2059C21.1349 29.8125 21.3281 29.4511 21.6117 29.1675C21.8953 28.8838 22.2567 28.6907 22.6502 28.6124C23.0436 28.5342 23.4514 28.5744 23.822 28.728C24.1925 28.8815 24.5092 29.1415 24.732 29.4751C24.9548 29.8086 25.0737 30.2008 25.0736 30.6019C25.0728 31.1394 24.8589 31.6546 24.4789 32.0346C24.0988 32.4147 23.5836 32.6286 23.0461 32.6294Z" fill="#404C6C"/>
</svg>
