<svg width="45" height="54" viewBox="0 0 45 54" fill="none" xmlns="http://www.w3.org/2000/svg">
<path d="M22.4202 30.1458C15.4629 29.919 13.7943 23.9621 13.4372 22.039C12.7674 21.8838 12.1706 21.5048 11.7455 20.9645C11.2601 20.2957 11.035 19.473 11.1121 18.6502C11.057 18.2069 11.0955 17.757 11.2252 17.3295C11.3549 16.902 11.5729 16.5065 11.865 16.1686C12.03 15.9995 12.2196 15.8565 12.4274 15.7443C11.1343 13.6567 10.4974 11.229 10.5992 8.77542C11.4045 3.02071 16.0422 2.46067 17.4948 2.42827C18.1633 1.65071 18.999 1.03441 19.9394 0.625489C21.7009 -0.0850373 23.6478 -0.193516 25.4773 0.316925C29.0736 1.25573 31.4719 3.0562 32.6098 5.66896C34.2297 9.38252 32.8088 13.6569 31.9926 15.5762C32.3039 15.6773 32.5908 15.842 32.835 16.0598C33.1674 16.3973 33.4178 16.8065 33.5671 17.256C33.7164 17.7055 33.7604 18.1833 33.6959 18.6525C33.7738 19.4752 33.5489 20.2981 33.0634 20.9668C32.6378 21.5069 32.0408 21.886 31.3709 22.0413C31.0137 23.9621 29.349 29.919 22.4202 30.1458ZM13.7164 16.9778C13.4428 16.9651 13.1752 17.0604 12.9712 17.2432C12.8301 17.4409 12.7295 17.6647 12.6753 17.9016C12.6212 18.1385 12.6145 18.3838 12.6557 18.6232C12.659 18.6747 12.6572 18.7264 12.6503 18.7775C12.6084 19.2203 12.7228 19.6638 12.9736 20.031C13.13 20.2058 13.3197 20.3475 13.5317 20.4479C13.7436 20.5483 13.9735 20.6054 14.2078 20.6158C14.3842 20.6366 14.548 20.7177 14.6715 20.8453C14.7951 20.9729 14.8708 21.1392 14.8859 21.3162C14.9113 21.6032 15.5956 28.38 22.4218 28.6037C29.2102 28.38 29.8975 21.6032 29.9229 21.3147C29.9384 21.138 30.0143 20.972 30.1378 20.8447C30.2613 20.7174 30.4249 20.6366 30.601 20.6158C30.8353 20.6055 31.0652 20.5485 31.2772 20.448C31.4891 20.3476 31.6789 20.2059 31.8353 20.031C32.0872 19.6619 32.2016 19.2161 32.1585 18.7713C32.1521 18.7217 32.1503 18.6716 32.1531 18.6217C32.1948 18.3744 32.1854 18.1211 32.1256 17.8776C32.0658 17.634 31.9567 17.4052 31.8052 17.2054C31.5642 17.0279 31.2644 16.9495 30.9674 16.9863C30.8247 17.0116 30.6777 16.9962 30.5433 16.9418C30.4089 16.8874 30.2925 16.7962 30.2076 16.6788C30.1226 16.5613 30.0725 16.4222 30.063 16.2775C30.0534 16.1329 30.0848 15.9884 30.1536 15.8608C30.1821 15.8068 33.0078 10.444 31.1919 6.27606C30.2516 4.12228 28.1989 2.61881 25.0893 1.80729C23.5948 1.38434 22.0025 1.46568 20.5588 2.03871C19.7375 2.39257 19.0216 2.95273 18.4806 3.66484C18.4028 3.77077 18.2989 3.85483 18.179 3.90888C18.0591 3.96293 17.9274 3.98516 17.7964 3.9734C17.5966 3.9572 12.8733 3.65173 12.1327 8.93202C12.1327 8.93202 11.919 13.1323 14.3521 15.678C14.4581 15.7888 14.5287 15.9288 14.5548 16.0799C14.5809 16.2311 14.5613 16.3866 14.4986 16.5265C14.4409 16.6701 14.339 16.7916 14.2077 16.8736C14.0764 16.9555 13.9225 16.9936 13.7681 16.9824L13.7164 16.9778Z" fill="#404C6C"/>
<path d="M20 53L16.5 33L13.5 33.5L11.5 35L7.5 35.5C3.1 36.7 1 41.3333 0.5 43.5V53H20Z" fill="#BFE6FE"/>
<path d="M33.5 35L28.5 33L25 53H44V43.5C43.6 37.1 36.8333 35.1667 33.5 35Z" fill="#BFE6FE"/>
<path d="M30.8333 16.9966C30.6342 16.9968 30.4427 16.92 30.2989 16.7822C30.1552 16.6445 30.0702 16.4565 30.0619 16.2576C30.0526 16.0578 29.8135 11.3977 26.3344 10.9495C24.7431 11.1516 23.1273 11.0256 21.5866 10.5793C20.0459 10.133 18.6129 9.37584 17.376 8.35451C16.3925 9.09429 14.1261 11.3429 14.5619 16.1388C14.5677 16.3351 14.4984 16.5262 14.3681 16.6732C14.2378 16.8201 14.0564 16.9118 13.8608 16.9296C13.6652 16.9474 13.4702 16.89 13.3155 16.769C13.1609 16.648 13.0582 16.4725 13.0284 16.2784C12.3889 9.2424 16.907 6.80012 17.0991 6.69983C17.2421 6.62521 17.4049 6.59729 17.5645 6.61998C17.7242 6.64267 17.8728 6.71484 17.9893 6.82635C19.0888 7.82223 20.3904 8.56891 21.8052 9.01532C23.2199 9.46173 24.7143 9.59734 26.1863 9.41288C26.2569 9.40145 26.3287 9.39886 26.4 9.40516C30.3218 9.81324 31.5198 14.0267 31.6047 16.1936C31.6126 16.3977 31.5393 16.5966 31.4007 16.7467C31.2622 16.8968 31.0698 16.9859 30.8657 16.9943L30.8333 16.9966Z" fill="#404C6C"/>
<path d="M44.1076 53.9999H0.771409C0.566819 53.9999 0.370608 53.9187 0.225941 53.774C0.0812737 53.6293 0 53.4331 0 53.2285V44.6289C0.00551397 41.9109 1.08868 39.306 3.01198 37.3854C4.93528 35.4649 7.54172 34.3854 10.2597 34.3838H11.7408C11.9454 34.3838 12.1416 34.4651 12.2863 34.6097C12.431 34.7544 12.5123 34.9506 12.5123 35.1552C12.5123 35.3598 12.431 35.556 12.2863 35.7007C12.1416 35.8453 11.9454 35.9266 11.7408 35.9266H10.2597C7.95078 35.9278 5.73652 36.8446 4.10247 38.4759C2.46842 40.1072 1.54792 42.3199 1.54282 44.6289V52.4571H43.3362V44.6289C43.3335 42.3217 42.4159 40.1098 40.7844 38.4784C39.153 36.847 36.9411 35.9293 34.6339 35.9266H33.0464C32.8418 35.9266 32.6456 35.8453 32.5009 35.7007C32.3562 35.556 32.275 35.3598 32.275 35.1552C32.275 34.9506 32.3562 34.7544 32.5009 34.6097C32.6456 34.4651 32.8418 34.3838 33.0464 34.3838H34.6339C37.3499 34.3877 39.9535 35.4683 41.874 37.3888C43.7945 39.3093 44.8751 41.9129 44.879 44.6289V53.2285C44.879 53.4331 44.7977 53.6293 44.6531 53.774C44.5084 53.9187 44.3122 53.9999 44.1076 53.9999Z" fill="#404C6C"/>
<path d="M25.0176 53.9999C24.9066 53.9999 24.7969 53.976 24.6959 53.9297C24.595 53.8834 24.5053 53.8159 24.4328 53.7317C24.3604 53.6476 24.307 53.5488 24.2763 53.4421C24.2455 53.3354 24.2382 53.2233 24.2547 53.1136L27.3766 32.4529C27.3931 32.3436 27.433 32.2391 27.4934 32.1466C27.5538 32.054 27.6334 31.9755 27.7269 31.9164C27.8203 31.8573 27.9253 31.819 28.0348 31.804C28.1444 31.789 28.2558 31.7978 28.3617 31.8296L33.7492 33.4534C33.8565 33.4858 33.9554 33.5411 34.0392 33.6156C34.1229 33.6901 34.1894 33.7819 34.234 33.8847C34.2787 33.9875 34.3004 34.0988 34.2977 34.2108C34.2949 34.3228 34.2678 34.4329 34.2182 34.5334L32.0768 38.8302L33.3188 40.2241C33.4288 40.3485 33.4958 40.5051 33.5097 40.6707C33.5236 40.8362 33.4837 41.0018 33.3959 41.1428L25.6733 53.6343C25.6042 53.746 25.5077 53.8382 25.393 53.9022C25.2782 53.9662 25.149 53.9998 25.0176 53.9999ZM28.7698 33.5637L26.3437 49.6191L31.7844 40.825L30.5787 39.4712C30.4761 39.3562 30.4104 39.213 30.3899 39.0603C30.3694 38.9075 30.3951 38.7521 30.4638 38.6142L32.4293 34.6692L28.7698 33.5637Z" fill="#404C6C"/>
<path d="M19.7728 53.9993C19.6413 53.9994 19.512 53.9658 19.3971 53.9018C19.2822 53.8378 19.1856 53.7455 19.1164 53.6337L11.3915 41.1446C11.3037 41.0035 11.2638 40.8379 11.2777 40.6724C11.2916 40.5069 11.3586 40.3502 11.4686 40.2258L12.7106 38.8319L10.5692 34.5351C10.5196 34.4346 10.4925 34.3246 10.4897 34.2125C10.487 34.1005 10.5087 33.9892 10.5533 33.8864C10.598 33.7836 10.6645 33.6918 10.7482 33.6173C10.8319 33.5429 10.9309 33.4875 11.0382 33.4552L16.4257 31.8313C16.5315 31.7996 16.6429 31.791 16.7523 31.806C16.8618 31.821 16.9667 31.8594 17.06 31.9185C17.1533 31.9776 17.2329 32.056 17.2933 32.1485C17.3537 32.241 17.3935 32.3454 17.41 32.4546L20.5335 53.1153C20.5496 53.2247 20.542 53.3363 20.5113 53.4426C20.4805 53.5488 20.4272 53.6472 20.3551 53.731C20.2829 53.8149 20.1936 53.8822 20.0932 53.9285C19.9927 53.9748 19.8835 53.999 19.7728 53.9993ZM13.006 40.8221L18.4468 49.6162L16.0207 33.5632L12.3612 34.6663L14.3259 38.6113C14.3947 38.7492 14.4206 38.9045 14.4002 39.0573C14.3799 39.21 14.3142 39.3532 14.2118 39.4683L13.006 40.8221Z" fill="#404C6C"/>
<path d="M22.4526 39.6174C20.7847 39.6162 19.1183 39.5152 17.4624 39.315C17.3597 39.3056 17.2599 39.2757 17.169 39.2271C17.0781 39.1784 16.9978 39.1121 16.933 39.0319C16.8681 38.9517 16.82 38.8593 16.7915 38.7603C16.7629 38.6612 16.7546 38.5574 16.7668 38.455C16.7791 38.3526 16.8118 38.2537 16.8629 38.1642C16.9141 38.0746 16.9827 37.9962 17.0646 37.9337C17.1466 37.8711 17.2403 37.8256 17.3401 37.7998C17.44 37.7741 17.544 37.7686 17.646 37.7837C20.7987 38.1714 23.987 38.1714 27.1397 37.7837C27.3408 37.762 27.5423 37.8201 27.701 37.9455C27.8597 38.0709 27.9627 38.2536 27.988 38.4542C28.0133 38.6549 27.9588 38.8574 27.8362 39.0183C27.7136 39.1791 27.5327 39.2854 27.3326 39.3142C25.7139 39.5174 24.084 39.6186 22.4526 39.6174Z" fill="#404C6C"/>
<path d="M28.1411 33.3393C28.021 33.3389 27.9027 33.3104 27.7955 33.2562C27.6884 33.2019 27.5954 33.1234 27.5239 33.0269C26.3776 31.4772 26.1701 28.4054 26.1508 28.0606C26.139 27.8564 26.2088 27.6559 26.3447 27.5032C26.4807 27.3504 26.6718 27.2579 26.8759 27.246C27.0796 27.2364 27.2788 27.3069 27.4311 27.4425C27.5833 27.578 27.6765 27.7678 27.6906 27.9711C27.7376 28.7826 28.023 31.1084 28.7636 32.1097C28.8482 32.2243 28.8995 32.3601 28.9116 32.5021C28.9238 32.6441 28.8964 32.7866 28.8325 32.914C28.7686 33.0413 28.6706 33.1484 28.5495 33.2235C28.4285 33.2986 28.2889 33.3387 28.1465 33.3393H28.1411Z" fill="#404C6C"/>
<path d="M16.6493 33.3394C16.5068 33.3387 16.3673 33.2986 16.2462 33.2236C16.1251 33.1485 16.0272 33.0413 15.9633 32.914C15.8994 32.7866 15.872 32.6441 15.8842 32.5021C15.8963 32.3602 15.9476 32.2244 16.0322 32.1097C16.7743 31.1069 17.0589 28.7819 17.106 27.9711C17.1119 27.8698 17.1376 27.7707 17.1818 27.6793C17.226 27.588 17.2878 27.5062 17.3636 27.4388C17.4394 27.3713 17.5277 27.3194 17.6235 27.2861C17.7194 27.2527 17.8208 27.2386 17.9221 27.2445C18.0234 27.2503 18.1226 27.2761 18.2139 27.3203C18.3053 27.3645 18.387 27.4263 18.4545 27.502C18.522 27.5778 18.5739 27.6662 18.6072 27.762C18.6405 27.8578 18.6547 27.9593 18.6488 28.0606C18.6295 28.4054 18.4174 31.4772 17.2757 33.0269C17.2033 33.1247 17.1088 33.204 17 33.2583C16.8911 33.3126 16.771 33.3404 16.6493 33.3394Z" fill="#404C6C"/>
<path d="M37.9873 43.1879C37.7865 43.188 37.5937 43.1098 37.4496 42.9699C37.3056 42.83 37.2217 42.6395 37.2159 42.4388C37.0717 37.4154 35.1616 35.8348 35.1431 35.8194C34.9838 35.6928 34.8804 35.5088 34.8553 35.3068C34.8302 35.1049 34.8854 34.9011 35.0089 34.7394C35.1316 34.579 35.3126 34.4735 35.5127 34.4457C35.7127 34.418 35.9156 34.4703 36.0773 34.5913C36.1791 34.6684 38.5898 36.5407 38.7587 42.3941C38.7645 42.5985 38.689 42.7968 38.5487 42.9454C38.4084 43.0941 38.2148 43.1811 38.0105 43.1871L37.9873 43.1879Z" fill="#404C6C"/>
<path d="M37.9911 47.7423C37.3879 47.7425 36.7983 47.5638 36.2967 47.2288C35.7951 46.8938 35.4042 46.4176 35.1733 45.8604C34.9423 45.3032 34.8818 44.6901 34.9994 44.0985C35.117 43.5069 35.4074 42.9635 35.8338 42.537C36.2602 42.1104 36.8036 41.8199 37.3951 41.7022C37.9867 41.5845 38.5998 41.6448 39.1571 41.8756C39.7143 42.1064 40.1906 42.4972 40.5257 42.9987C40.8608 43.5002 41.0397 44.0898 41.0397 44.6929C41.0389 45.5013 40.7174 46.2763 40.1459 46.848C39.5744 47.4197 38.7994 47.7413 37.9911 47.7423ZM37.9911 43.1864C37.6931 43.1862 37.4017 43.2744 37.1539 43.4399C36.906 43.6053 36.7128 43.8406 36.5986 44.1159C36.4845 44.3911 36.4545 44.6941 36.5126 44.9864C36.5706 45.2787 36.7141 45.5472 36.9247 45.758C37.1354 45.9687 37.4038 46.1123 37.6961 46.1705C37.9884 46.2287 38.2913 46.1989 38.5667 46.0849C38.842 45.9709 39.0773 45.7778 39.2429 45.53C39.4085 45.2822 39.4969 44.9909 39.4969 44.6929C39.4965 44.2936 39.3377 43.9108 39.0554 43.6284C38.7731 43.3459 38.3904 43.187 37.9911 43.1864Z" fill="#404C6C"/>
<path d="M6.30317 43.1884C6.10772 43.1889 5.91938 43.1152 5.77619 42.9822C5.63299 42.8492 5.54563 42.6667 5.53176 42.4718C5.11134 36.5512 8.37363 34.659 8.51248 34.581C8.69068 34.4805 8.90153 34.4548 9.09863 34.5097C9.29574 34.5646 9.46297 34.6956 9.56353 34.8738C9.66408 35.052 9.68973 35.2628 9.63483 35.4599C9.57993 35.6571 9.44898 35.8243 9.27078 35.9248C9.15352 35.9943 6.72513 37.4931 7.06995 42.363C7.08437 42.5671 7.01713 42.7685 6.88303 42.923C6.74892 43.0775 6.55893 43.1725 6.35485 43.1869L6.30317 43.1884Z" fill="#404C6C"/>
<path d="M4.74264 49.3645C4.62327 49.365 4.50541 49.3379 4.39832 49.2851C4.29124 49.2324 4.19785 49.1555 4.12551 49.0606C3.74896 48.566 3.47156 48.0034 3.30859 47.4036C2.95049 46.2352 3.06798 44.9728 3.63551 43.8906C4.20304 42.8084 5.17475 41.9939 6.33946 41.6242C6.8919 41.4688 7.46976 41.4251 8.03929 41.4956C8.60881 41.566 9.15859 41.7493 9.65652 42.0346C10.5291 42.5387 11.2271 43.2972 11.6572 44.2086C12.0873 45.1201 12.2289 46.141 12.0633 47.1351C12.0298 47.337 11.9174 47.5172 11.751 47.6362C11.5845 47.7552 11.3776 47.8032 11.1758 47.7696C10.974 47.7361 10.7937 47.6237 10.6748 47.4573C10.5558 47.2908 10.5078 47.0839 10.5413 46.8821C10.6545 46.201 10.5584 45.5015 10.2655 44.8762C9.97272 44.2508 9.49701 43.7291 8.90131 43.3799C8.58011 43.1944 8.22517 43.0748 7.85723 43.0281C7.48928 42.9813 7.11571 43.0084 6.75833 43.1076C5.98536 43.3661 5.34549 43.919 4.97752 44.6462C4.60956 45.3735 4.54318 46.2165 4.79278 46.9924C4.90441 47.4031 5.0946 47.7882 5.35283 48.1264C5.4397 48.2407 5.49294 48.377 5.50655 48.52C5.52016 48.6629 5.4936 48.8068 5.42987 48.9355C5.36613 49.0642 5.26775 49.1725 5.14579 49.2483C5.02384 49.3241 4.88315 49.3643 4.73956 49.3645H4.74264Z" fill="#404C6C"/>
<path d="M11.3127 47.7821C11.2826 47.7821 11.2518 47.7821 11.2209 47.7775L10.3515 47.6749C10.2509 47.6629 10.1536 47.6313 10.0652 47.5817C9.97677 47.5322 9.89898 47.4657 9.83627 47.3861C9.77356 47.3064 9.72714 47.2153 9.69967 47.1177C9.6722 47.0201 9.66421 46.9181 9.67616 46.8175C9.68812 46.7168 9.71978 46.6195 9.76934 46.5311C9.8189 46.4427 9.88538 46.3649 9.965 46.3022C10.1258 46.1756 10.3303 46.118 10.5336 46.1421L11.403 46.2455C11.5982 46.2687 11.7772 46.3656 11.9034 46.5164C12.0296 46.6671 12.0935 46.8604 12.0819 47.0567C12.0704 47.253 11.9844 47.4374 11.8414 47.5724C11.6984 47.7074 11.5093 47.7827 11.3127 47.7829V47.7821Z" fill="#404C6C"/>
<path d="M4.74268 49.3718C4.56156 49.3721 4.38612 49.3086 4.24711 49.1925C4.10809 49.0763 4.01437 48.915 3.98236 48.7367C3.95035 48.5585 3.98209 48.3746 4.07202 48.2174C4.16195 48.0602 4.30433 47.9396 4.47423 47.8768L5.39992 47.5351C5.49489 47.4996 5.59592 47.4832 5.69723 47.4868C5.79854 47.4904 5.89815 47.5139 5.99038 47.556C6.0826 47.5981 6.16564 47.6579 6.23474 47.7321C6.30384 47.8063 6.35765 47.8933 6.39311 47.9883C6.42856 48.0833 6.44497 48.1843 6.44138 48.2856C6.43779 48.3869 6.41429 48.4865 6.3722 48.5787C6.33012 48.671 6.27028 48.754 6.19611 48.8231C6.12194 48.8922 6.03488 48.946 5.93991 48.9815L5.01422 49.324C4.92731 49.3561 4.83533 49.3723 4.74268 49.3718Z" fill="#404C6C"/>
</svg>
