<svg width="63" height="90" viewBox="0 0 63 90" fill="none" xmlns="http://www.w3.org/2000/svg">
<path d="M8 68.5L9 67L15.5 67.5V73H25V68.5L26 67H31L32 68.5L32.5 70.5L34.5 72.5H37.5L39.5 70V33.5L39 27L36.5 24.5L7 24L2.5 25.5L1 29.5V64L1.5 70L3 72L6.5 73L7.5 71L8 68.5Z" fill="#BFE6FE"/>
<path d="M54.1252 0H39.414C37.3966 0 35.6861 1.33612 35.121 3.16899H25.9396C25.2109 3.16899 24.6201 3.75909 24.6201 4.48735C24.6201 6.843 22.6997 8.75972 20.3392 8.75972C17.9816 8.75972 16.0634 6.84318 16.0634 4.48735C16.0634 3.75909 15.4726 3.16899 14.7439 3.16899C14.0152 3.16899 13.4245 3.75909 13.4245 4.48735C13.4245 7.84619 15.8361 10.6515 19.0197 11.2687V16.4616C16.2378 17.068 14.1475 19.549 14.1475 22.5101C14.1475 22.6697 14.1551 22.8281 14.1672 22.9856H4.60583C2.06612 22.9856 0 25.0499 0 27.5877V69.7173C0 72.3536 2.1444 74.4985 4.78036 74.4985C7.41613 74.4985 9.56071 72.3536 9.56071 69.7173V68.564H14.2874V72.104C13.4908 72.4435 12.931 73.2334 12.931 74.1519V78.5816C12.931 79.8083 13.9301 80.8066 15.1581 80.8066H19.0199V88.6816C19.0199 89.4099 19.6107 90 20.3394 90C21.0681 90 21.6589 89.4099 21.6589 88.6816V80.8066H25.5258C26.7538 80.8066 27.7529 79.8083 27.7529 78.5816V74.1519C27.7529 73.2334 27.1931 72.4433 26.3965 72.104V68.564H31.1232V69.7173C31.1232 72.3536 33.2676 74.4985 35.9035 74.4985C38.5395 74.4985 40.6839 72.3536 40.6839 69.7173V60.0955C40.6839 59.3672 40.0931 58.7771 39.3644 58.7771C38.6357 58.7771 38.0449 59.3672 38.0449 60.0955V69.7173C38.0449 70.8999 37.0844 71.8618 35.9035 71.8618C34.7227 71.8618 33.7621 70.8997 33.7621 69.7173V68.1625C33.7621 66.9299 32.7563 65.9272 31.5201 65.9272H25.9996C24.7633 65.9272 23.7575 66.9299 23.7575 68.1625V71.9267H16.9264V68.1625C16.9264 66.9299 15.9206 65.9272 14.6843 65.9272H9.15889C7.92545 65.9272 6.92195 66.9299 6.92195 68.1625V69.7173C6.92195 70.8999 5.96137 71.8618 4.78053 71.8618C3.59969 71.8618 2.63912 70.8997 2.63912 69.7173V63.402H6.28649C7.01519 63.402 7.60596 62.8119 7.60596 62.0836C7.60596 61.3553 7.01519 60.7652 6.28649 60.7652H2.63877V57.248H9.24844C9.97714 57.248 10.5679 56.6579 10.5679 55.9297C10.5679 55.2014 9.97714 54.6113 9.24844 54.6113H2.63877V51.0944H6.28614C7.01484 51.0944 7.60561 50.5043 7.60561 49.7761C7.60561 49.0478 7.01484 48.4577 6.28614 48.4577H2.63877V44.9407H38.0446L38.0449 60.0955C38.0449 60.8238 38.6357 61.5 39.3644 61.5C40.0931 61.5 40.6839 60.8238 40.6839 60.0955L40.6835 27.5877C40.6835 25.0499 38.6151 22.9856 36.0728 22.9856H26.5157C26.5281 22.8275 26.5358 22.6691 26.5358 22.5101C26.5358 19.5485 24.4435 17.0673 21.6587 16.4612V11.269C24.4174 10.7348 26.5958 8.56021 27.1311 5.80589H35.121C35.6859 7.63876 37.3966 8.97488 39.414 8.97488H51.7963C53.0211 8.97488 54.0174 9.96822 54.0174 11.1894V43.1691C54.0174 43.8974 54.6082 44.4875 55.3369 44.4875C56.0656 44.4875 56.6563 43.8974 56.6563 43.1691V11.1892C56.6563 8.51416 54.476 6.33798 51.7963 6.33798H39.414C38.3927 6.33798 37.5618 5.50776 37.5618 4.48735C37.5618 3.46694 38.3927 2.63672 39.414 2.63672H54.1252C57.5636 2.63672 60.3609 5.43165 60.3609 8.8673V86.5364H56.6565V49.2528C56.6565 48.5245 56.0657 47.9344 55.337 47.9344C54.6083 47.9344 54.0176 48.5245 54.0176 49.2528V86.8929C54.0176 88.1501 55.0413 89.1731 56.2995 89.1731H60.718C61.9763 89.1731 63 88.1502 63 86.8929V8.8673C62.9998 3.97794 59.0187 0 54.1252 0ZM25.1138 78.1701H15.5698V74.5634H25.1138V78.1701ZM38.0446 27.5877V42.304H2.63877V38.7869H6.28614C7.01484 38.7869 7.60561 38.1968 7.60561 37.4686C7.60561 36.7403 7.01484 36.1502 6.28614 36.1502H2.63877V32.6331H9.24844C9.97714 32.6331 10.5679 32.043 10.5679 31.3148C10.5679 30.5865 9.97714 29.9964 9.24844 29.9964H2.63877V27.5877C2.63877 26.504 3.52123 25.6223 4.60566 25.6223H15.786H15.7914H24.8645C24.8669 25.6223 24.8694 25.6226 24.8719 25.6226L24.8764 25.6223H36.0726C37.16 25.6225 38.0446 26.504 38.0446 27.5877ZM23.8969 22.5102C23.8969 22.6693 23.8821 22.8279 23.8603 22.9857H16.8218C16.8009 22.8291 16.7865 22.6711 16.7865 22.5102C16.7865 20.5503 18.3802 18.9554 20.3392 18.9554C22.3008 18.9554 23.8969 20.5501 23.8969 22.5102Z" fill="#404C6C"/>
</svg>
