<svg width="95" height="90" viewBox="0 0 95 90" fill="none" xmlns="http://www.w3.org/2000/svg">
<path d="M49.5 25.5L16.5 58.5L16 59.5L29.5 72.5L62.5 39.5C63.3 38.7 63.5 36.5 63.5 35.5C61 32.6667 55.7 26.7 54.5 25.5C53.3 24.3 50.6667 25 49.5 25.5Z" fill="#BFE6FE"/>
<path d="M88 5C86.5 7.16667 83.5 11.6 83.5 12L83 17.5L86.5 20H90L92.5 17.5L93.5 14L92 11L90 7.5L88 5Z" fill="#BFE6FE"/>
<path d="M89.4121 3.79556C89.3081 3.642 89.168 3.51627 89.0041 3.42934C88.8403 3.34241 88.6576 3.29693 88.4721 3.29688C88.2867 3.29684 88.104 3.34222 87.9401 3.42905C87.7762 3.51588 87.6361 3.64152 87.5319 3.79499C87.3841 4.01309 83.8982 9.1576 82.9995 11.0671C82.4883 12.1527 81.9438 13.4439 81.9438 15.031C81.9438 16.7624 82.6316 18.4228 83.8559 19.6471C85.0801 20.8713 86.7406 21.5591 88.4719 21.5591C90.2033 21.5591 91.8637 20.8713 93.088 19.6471C94.3123 18.4228 95 16.7624 95 15.031C95 13.4255 94.5212 12.2847 93.943 11.0641C93.0324 9.1434 89.5596 4.0129 89.4121 3.79556ZM88.4719 19.2836C87.344 19.2827 86.2625 18.8345 85.4645 18.0373C84.6666 17.2401 84.2175 16.1589 84.2155 15.031C84.2155 13.9123 84.6302 12.9371 85.0548 12.0344C85.6075 10.8606 87.3646 8.14944 88.4714 6.47733C89.5759 8.14642 91.3286 10.8538 91.8898 12.037C92.4578 13.2356 92.7279 13.9893 92.7279 15.031C92.726 16.1589 92.2769 17.2399 91.4791 18.0371C90.6812 18.8343 89.5998 19.2826 88.4719 19.2836Z" fill="#404C6C"/>
<path d="M10.9887 87.9999C11.3116 88.3312 11.6971 88.5951 12.1228 88.7762C12.5485 88.9574 13.006 89.0522 13.4686 89.0551C13.9313 89.0581 14.3899 88.9691 14.8179 88.7935C15.2459 88.6178 15.6347 88.3589 15.9619 88.0317C16.289 87.7046 16.548 87.3157 16.7236 86.8877C16.8993 86.4597 16.9883 86.0011 16.9853 85.5385C16.9823 85.0758 16.8875 84.6184 16.7064 84.1927C16.5252 83.7669 16.2614 83.3814 15.9301 83.0585L13.3984 80.5252L20.9375 72.9863L26.3522 78.4009C26.697 78.7458 27.1063 79.0193 27.5569 79.2059C28.0074 79.3925 28.4902 79.4885 28.9779 79.4885C29.4655 79.4885 29.9484 79.3924 30.3989 79.2058C30.8494 79.0192 31.2587 78.7457 31.6035 78.4009C31.9483 78.056 32.2219 77.6467 32.4085 77.1962C32.5951 76.7456 32.6911 76.2628 32.6911 75.7751C32.6911 75.2875 32.595 74.8046 32.4084 74.3541C32.2218 73.9036 31.9483 73.4943 31.6034 73.1495L31.1919 72.7377L64.1911 39.7385C64.8935 39.0374 65.3193 38.1064 65.39 37.1165C65.4607 36.1266 65.1716 35.1444 64.576 34.3507L68.8698 30.0568C69.3784 29.5466 69.7129 28.8888 69.8256 28.1773C69.9384 27.4658 69.8237 26.7369 69.4978 26.0944L74.961 20.6313C75.6956 19.894 76.1633 18.9328 76.2902 17.8998C76.4171 16.8667 76.1958 15.8209 75.6615 14.9277L87.8087 2.78049C87.9142 2.675 87.9979 2.54977 88.0549 2.41194C88.112 2.27411 88.1414 2.12639 88.1414 1.97722C88.1414 1.82804 88.112 1.68032 88.0549 1.5425C87.9978 1.40468 87.9141 1.27946 87.8086 1.17398C87.7031 1.0685 87.5779 0.984834 87.4401 0.927754C87.3022 0.870674 87.1545 0.8413 87.0053 0.841309C86.8562 0.841317 86.7084 0.870709 86.5706 0.927805C86.4328 0.984901 86.3076 1.06858 86.2021 1.17408L74.0605 13.316C73.1664 12.7811 72.1192 12.56 71.0851 12.6877C70.051 12.8155 69.0891 13.2848 68.352 14.0212L62.8885 19.4844C62.2459 19.1584 61.5168 19.0436 60.805 19.1563C60.0933 19.2691 59.4354 19.6037 58.925 20.1124L54.6311 24.4064C53.8374 23.8108 52.8552 23.5217 51.8653 23.5924C50.8754 23.663 49.9443 24.0887 49.2432 24.7911L16.244 57.7904L15.8324 57.3786C15.1359 56.6821 14.1914 56.2908 13.2064 56.2907C12.2215 56.2907 11.2769 56.6819 10.5804 57.3783C9.88392 58.0747 9.49261 59.0193 9.49255 60.0042C9.4925 60.9891 9.88371 61.9338 10.5801 62.6302L15.9948 68.0449L8.45667 75.5838L5.92445 73.0518C5.26555 72.4143 4.38251 72.0612 3.46571 72.0688C2.54892 72.0764 1.67182 72.4439 1.02353 73.0922C0.375237 73.7405 0.00768353 74.6176 0.000119101 75.5344C-0.00744533 76.4512 0.345585 77.3342 0.983092 77.9931L10.9887 87.9999ZM69.9581 15.6278C70.4085 15.1774 71.0194 14.9244 71.6564 14.9244C72.2934 14.9244 72.9043 15.1774 73.3547 15.6278C73.8052 16.0783 74.0582 16.6892 74.0582 17.3262C74.0582 17.9632 73.8052 18.5741 73.3547 19.0245L68.0114 24.3676L64.615 20.971L69.9581 15.6278ZM60.5314 21.719C60.7462 21.5047 61.0373 21.3843 61.3407 21.3843C61.6441 21.3843 61.9352 21.5047 62.15 21.719L67.2638 26.8328C67.4781 27.0476 67.5985 27.3386 67.5985 27.642C67.5985 27.9454 67.4781 28.2364 67.2638 28.4512L63.0029 32.7121L56.2707 25.9809L60.5314 21.719ZM50.8494 26.3974C51.0218 26.2249 51.2264 26.0881 51.4517 25.9948C51.677 25.9015 51.9184 25.8534 52.1623 25.8534C52.4061 25.8534 52.6475 25.9015 52.8728 25.9948C53.0981 26.0881 53.3027 26.2249 53.4751 26.3974L62.5845 35.5067C62.7569 35.6791 62.8937 35.8838 62.9871 36.109C63.0804 36.3343 63.1284 36.5757 63.1284 36.8196C63.1284 37.0634 63.0804 37.3049 62.9871 37.5301C62.8937 37.7554 62.7569 37.9601 62.5845 38.1324L59.6284 41.0889L55.4284 36.889C55.2148 36.6788 54.9268 36.5615 54.6271 36.5627C54.3275 36.5639 54.0404 36.6834 53.8285 36.8953C53.6166 37.1072 53.4969 37.3942 53.4957 37.6939C53.4944 37.9935 53.6116 38.2815 53.8218 38.4952L58.0216 42.6952L55.57 45.1467L53.8718 43.4485C53.7663 43.343 53.6411 43.2593 53.5032 43.2022C53.3654 43.1451 53.2177 43.1157 53.0685 43.1157C52.9194 43.1157 52.7716 43.1451 52.6338 43.2022C52.496 43.2592 52.3707 43.3429 52.2653 43.4484C52.1598 43.5539 52.0761 43.6791 52.019 43.8169C51.9619 43.9547 51.9325 44.1024 51.9325 44.2516C51.9325 44.4008 51.9619 44.5485 52.0189 44.6863C52.076 44.8242 52.1597 44.9494 52.2652 45.0549L53.9636 46.7531L51.512 49.2056L47.3121 45.0057C47.2066 44.9002 47.0813 44.8165 46.9435 44.7594C46.8057 44.7024 46.658 44.673 46.5088 44.673C46.3596 44.673 46.2119 44.7024 46.0741 44.7595C45.9362 44.8166 45.811 44.9003 45.7055 45.0058C45.6001 45.1113 45.5164 45.2365 45.4593 45.3743C45.4022 45.5121 45.3729 45.6599 45.3729 45.809C45.3729 45.9582 45.4023 46.1059 45.4594 46.2438C45.5165 46.3816 45.6002 46.5068 45.7056 46.6123L49.9054 50.8121L47.4539 53.2636L45.7556 51.5654C45.5426 51.3523 45.2537 51.2326 44.9524 51.2326C44.6511 51.2326 44.3622 51.3523 44.1491 51.5653C43.9361 51.7783 43.8164 52.0672 43.8163 52.3685C43.8163 52.6698 43.936 52.9587 44.149 53.1718L45.8473 54.8702L43.3957 57.3218L39.1959 53.1218C38.9829 52.9088 38.6939 52.7891 38.3926 52.7891C38.0913 52.7891 37.8024 52.9088 37.5893 53.1218C37.3763 53.3349 37.2566 53.6238 37.2566 53.9251C37.2566 54.2264 37.3763 54.5154 37.5893 54.7284L41.7893 58.9282L39.3385 61.3799L37.6401 59.6815C37.427 59.4685 37.1381 59.3488 36.8368 59.3488C36.5355 59.3489 36.2466 59.4686 36.0335 59.6816C35.8205 59.8947 35.7009 60.1836 35.7009 60.4849C35.7009 60.7862 35.8206 61.0751 36.0336 61.2881L37.7319 62.9864L35.2797 65.4379L31.0798 61.2379C30.8667 61.0249 30.5778 60.9053 30.2765 60.9053C29.9752 60.9053 29.6863 61.025 29.4733 61.238C29.2602 61.4511 29.1406 61.74 29.1406 62.0413C29.1406 62.3426 29.2603 62.6315 29.4734 62.8446L33.6733 67.0453L29.5854 71.133L17.8502 59.3966L50.8494 26.3974ZM12.1873 61.0248C11.917 60.7545 11.7651 60.3879 11.7651 60.0056C11.7651 59.6233 11.9169 59.2567 12.1872 58.9864C12.4575 58.7161 12.8241 58.5642 13.2064 58.5642C13.5886 58.5642 13.9553 58.716 14.2256 58.9863L29.9972 74.757C30.2675 75.0273 30.4194 75.394 30.4194 75.7763C30.4194 76.1585 30.2675 76.5252 29.9972 76.7955C29.7269 77.0658 29.3603 77.2177 28.978 77.2177C28.5957 77.2177 28.2291 77.0658 27.9588 76.7955L12.1873 61.0248ZM17.602 69.6525L19.3309 71.3814L11.7918 78.9195L10.0629 77.1906L17.602 69.6525ZM2.58856 74.6593C2.81802 74.4304 3.1289 74.3019 3.45302 74.3019C3.77713 74.3019 4.08801 74.4304 4.31747 74.6593L14.3238 84.6655C14.4402 84.7784 14.533 84.9132 14.5968 85.0623C14.6605 85.2113 14.694 85.3716 14.6953 85.5337C14.6965 85.6958 14.6655 85.8565 14.6041 86.0066C14.5426 86.1566 14.4519 86.2929 14.3373 86.4075C14.2227 86.5221 14.0864 86.6128 13.9364 86.6743C13.7864 86.7358 13.6256 86.7668 13.4635 86.7656C13.3014 86.7643 13.1412 86.7309 12.9921 86.6671C12.843 86.6034 12.7082 86.5106 12.5953 86.3942L2.58894 76.3873C2.35971 76.158 2.23093 75.8471 2.23093 75.5228C2.23093 75.1986 2.35971 74.8877 2.58894 74.6584L2.58856 74.6593Z" fill="#404C6C"/>
<path d="M51.8112 30.781C52.0136 30.781 52.2128 30.7311 52.3913 30.6356C52.5698 30.5402 52.722 30.4022 52.8344 30.2339C52.9468 30.0655 53.016 29.8721 53.0358 29.6707C53.0555 29.4692 53.0253 29.266 52.9478 29.0791C52.8703 28.8921 52.7478 28.7271 52.5913 28.5988C52.4348 28.4705 52.249 28.3827 52.0505 28.3433C51.8519 28.304 51.6467 28.3142 51.4531 28.373C51.2594 28.4319 51.0833 28.5376 50.9403 28.6809C50.7683 28.853 50.6513 29.0723 50.604 29.311C50.5566 29.5497 50.5811 29.797 50.6743 30.0218C50.7675 30.2466 50.9253 30.4387 51.1276 30.5738C51.33 30.7089 51.5678 30.7811 51.8112 30.781Z" fill="#404C6C"/>
<path d="M36.4453 46.1861C36.5945 46.1863 36.7423 46.157 36.8801 46.0999C37.018 46.0428 37.1432 45.9591 37.2486 45.8535L50.3383 32.7634C50.5513 32.5504 50.671 32.2614 50.671 31.9601C50.6709 31.6588 50.5512 31.3699 50.3382 31.1569C50.1251 30.9439 49.8362 30.8242 49.5349 30.8242C49.2336 30.8242 48.9447 30.9439 48.7317 31.157L35.6416 44.2469C35.4827 44.4057 35.3745 44.6081 35.3307 44.8285C35.2868 45.0489 35.3093 45.2773 35.3953 45.4849C35.4813 45.6925 35.6269 45.8699 35.8138 45.9947C36.0006 46.1195 36.2202 46.1861 36.4449 46.1861H36.4453Z" fill="#404C6C"/>
</svg>
