<svg width="88" height="88" viewBox="0 0 88 88" fill="none" xmlns="http://www.w3.org/2000/svg">
<path d="M80.2793 22.8113L80.202 22.856L70.9929 28.1738C68.2498 23.583 64.374 19.7073 59.7832 16.9641L65.101 7.75508L65.1457 7.67773C71.3315 11.3868 76.5702 16.6255 80.2793 22.8113Z" fill="#BFE6FE"/>
<path d="M75.4101 44H86.2382C86.2382 51.6347 84.0485 58.9016 80.2793 65.1888L80.202 65.1441L71.0771 59.8761L70.9929 59.8262C73.7893 55.1461 75.4101 49.7217 75.4101 44Z" fill="#BFE6FE"/>
<path d="M65.1011 80.2452L65.1458 80.3225C58.8586 84.0918 51.5917 86.2814 43.957 86.2814V75.4533C49.6788 75.4533 55.1031 73.8325 59.7833 71.0361L65.1011 80.2452Z" fill="#BFE6FE"/>
<path d="M28.1309 71.0359L22.813 80.2449L22.7684 80.3223C16.5826 76.6132 11.3438 71.3745 7.63477 65.1887L7.71211 65.144L16.9212 59.8262C19.6643 64.417 23.5401 68.2927 28.1309 71.0359Z" fill="#BFE6FE"/>
<path d="M7.71203 22.8562L16.9211 28.174C14.1247 32.8542 12.5039 38.2786 12.5039 44.0003H1.67578C1.67578 36.3656 3.86547 29.0987 7.63469 22.8115L7.71203 22.8562Z" fill="#BFE6FE"/>
<path d="M43.9571 1.71875V12.5469C38.2353 12.5469 32.811 14.1677 28.1308 16.9641L22.813 7.755L22.7683 7.67766C29.0555 3.90844 36.3224 1.71875 43.9571 1.71875Z" fill="#BFE6FE"/>
<path d="M56.0312 25.0938C56.98 25.0938 57.75 24.3238 57.75 23.375C57.75 22.4262 56.98 21.6562 56.0312 21.6562C55.0825 21.6562 54.3125 22.4262 54.3125 23.375C54.3125 24.3238 55.0825 25.0938 56.0312 25.0938Z" fill="#404C6C"/>
<path d="M44 0C20.2085 0 0 20.3261 0 44C0 67.7578 20.2919 88 44 88C59.7625 88 74.0104 79.0575 81.7965 66.0725C85.8548 59.3029 88 51.6704 88 44C88 20.2175 67.6832 0 44 0ZM79.6864 62.837L73.3624 59.186C75.5844 54.9844 76.867 50.3711 77.1207 45.7016H84.5221C84.253 51.6208 82.5987 57.4941 79.6864 62.837ZM28.8147 73.3628C33.016 75.5844 37.6118 76.867 42.2812 77.1205V84.5219C36.362 84.2528 30.5058 82.5987 25.1632 79.6864L28.8147 73.3628ZM45.7188 77.1207C50.3881 76.8671 54.984 75.5846 59.1853 73.363L62.8368 79.6866C57.4941 82.599 51.638 84.2531 45.7188 84.5223V77.1207ZM44 73.7344C27.8817 73.7344 14.2656 60.1009 14.2656 44C14.2656 27.8312 27.9591 14.2656 44 14.2656C60.1825 14.2656 73.7344 27.9905 73.7344 44C73.7344 60.1164 60.1031 73.7344 44 73.7344ZM8.31342 62.8368C5.40117 57.4939 3.74705 51.6378 3.47789 45.7188H10.8793C11.1329 50.3881 12.4154 54.9838 14.637 59.1852L8.31342 62.8368ZM8.31342 25.1632L14.637 28.8147C12.4154 33.0162 11.133 37.6119 10.8793 42.2812H3.47789C3.74705 36.3622 5.40134 30.5061 8.31342 25.1632ZM59.1853 14.6372C54.984 12.4154 50.3882 11.133 45.7188 10.8793V3.47789C51.638 3.74705 57.4943 5.40117 62.8368 8.31342L59.1853 14.6372ZM42.2812 10.8793C37.6118 11.1329 33.016 12.4154 28.8147 14.637L25.1632 8.31359C30.5059 5.40117 36.362 3.74705 42.2812 3.47789V10.8793ZM77.1207 42.2812C76.8671 37.6119 75.5846 33.0162 73.363 28.8148L79.6866 25.1634C82.5988 30.5063 84.253 36.3624 84.5221 42.2814H77.1207V42.2812ZM77.9142 22.2171L71.6026 25.8617C69.1063 22.1227 65.8771 18.8935 62.1383 16.3974L65.7829 10.0858C70.5989 13.254 74.7462 17.4011 77.9142 22.2171ZM22.2171 10.0858L25.8617 16.3974C22.1229 18.8935 18.8937 22.1229 16.3974 25.8617L10.0858 22.2171C13.254 17.4011 17.4013 13.2538 22.2171 10.0858ZM10.0858 65.7829L16.3976 62.1383C18.8939 65.8773 22.1231 69.1065 25.8619 71.6026L22.2173 77.9142C17.4011 74.746 13.2538 70.5989 10.0858 65.7829ZM65.7829 77.9142L62.1383 71.6026C65.8769 69.1066 69.106 65.8776 71.6023 62.139L77.9144 65.7831C74.746 70.599 70.5987 74.7462 65.7829 77.9142Z" fill="#404C6C"/>
<path d="M65.4155 37.6172C65.6869 38.5248 66.6427 39.0441 67.5545 38.7718C68.4641 38.5001 68.9809 37.5426 68.7092 36.633C67.5688 32.8169 65.5142 29.2573 62.7674 26.3391C62.1169 25.648 61.0291 25.6148 60.3378 26.2657C59.6467 26.9162 59.6137 28.0039 60.2643 28.6953C62.6463 31.2258 64.4276 34.311 65.4155 37.6172Z" fill="#404C6C"/>
<path d="M61.1875 38.8438C58.9469 38.8438 57.0364 40.2808 56.3269 42.2812H52.4208C51.7356 38.9189 49.0811 36.2644 45.7188 35.5792V31.6731C47.7192 30.9636 49.1562 29.0532 49.1562 26.8125C49.1562 23.9693 46.8432 21.6562 44 21.6562C41.1568 21.6562 38.8438 23.9693 38.8438 26.8125C38.8438 29.0531 40.2808 30.9636 42.2812 31.6731V35.5792C38.9189 36.2644 36.2644 38.9189 35.5792 42.2812H31.6731C30.9636 40.2808 29.0532 38.8438 26.8125 38.8438C23.9693 38.8438 21.6562 41.1568 21.6562 44C21.6562 46.8432 23.9693 49.1562 26.8125 49.1562C29.0531 49.1562 30.9636 47.7192 31.6731 45.7188H35.5792C36.2644 49.0811 38.9189 51.7356 42.2812 52.4208V56.3269C40.2808 57.0364 38.8438 58.9468 38.8438 61.1875C38.8438 64.0307 41.1568 66.3438 44 66.3438C46.8432 66.3438 49.1562 64.0307 49.1562 61.1875C49.1562 58.9469 47.7192 57.0364 45.7188 56.3269V52.4208C49.0811 51.7356 51.7356 49.0811 52.4208 45.7188H56.3269C57.0364 47.7192 58.9468 49.1562 61.1875 49.1562C64.0307 49.1562 66.3438 46.8432 66.3438 44C66.3438 41.1568 64.0307 38.8438 61.1875 38.8438ZM44 25.0938C44.9477 25.0938 45.7188 25.8648 45.7188 26.8125C45.7188 27.7602 44.9477 28.5312 44 28.5312C43.0523 28.5312 42.2812 27.7602 42.2812 26.8125C42.2812 25.8648 43.0523 25.0938 44 25.0938ZM26.8125 45.7188C25.8648 45.7188 25.0938 44.9477 25.0938 44C25.0938 43.0523 25.8648 42.2812 26.8125 42.2812C27.7602 42.2812 28.5312 43.0523 28.5312 44C28.5312 44.9477 27.7602 45.7188 26.8125 45.7188ZM44 62.9062C43.0523 62.9062 42.2812 62.1352 42.2812 61.1875C42.2812 60.2398 43.0523 59.4688 44 59.4688C44.9477 59.4688 45.7188 60.2398 45.7188 61.1875C45.7188 62.1352 44.9477 62.9062 44 62.9062ZM44 49.1562C41.1568 49.1562 38.8438 46.8432 38.8438 44C38.8438 41.1568 41.1568 38.8438 44 38.8438C46.8432 38.8438 49.1562 41.1568 49.1562 44C49.1562 46.8432 46.8432 49.1562 44 49.1562ZM61.1875 45.7188C60.2398 45.7188 59.4688 44.9477 59.4688 44C59.4688 43.0523 60.2398 42.2812 61.1875 42.2812C62.1352 42.2812 62.9062 43.0523 62.9062 44C62.9062 44.9477 62.1352 45.7188 61.1875 45.7188Z" fill="#404C6C"/>
</svg>
