<svg width="78" height="89" viewBox="0 0 78 89" fill="none" xmlns="http://www.w3.org/2000/svg">
<path d="M43.2423 73.3708C43.2423 71.1884 41.4669 69.4131 39.2846 69.4131C37.1022 69.4131 35.3269 71.1885 35.3269 73.3708C35.3269 75.5532 37.1024 77.3285 39.2846 77.3285C41.4669 77.3285 43.2423 75.5531 43.2423 73.3708ZM37.9279 73.3708C37.9279 72.6228 38.5366 72.0143 39.2845 72.0143C40.0323 72.0143 40.641 72.6228 40.641 73.3708C40.641 74.1187 40.0323 74.7273 39.2845 74.7273C38.5366 74.7273 37.9279 74.1187 37.9279 73.3708Z" fill="#404C6C"/>
<path d="M23.2361 60.6223C26.5204 62.1152 33.1787 65.1906 33.537 65.5489L38.4635 65.9967L42.4943 56.1437C43.2407 54.6508 44.7336 51.5754 44.7336 51.2171C44.7336 50.8589 45.3308 48.6792 45.6294 47.6342L44.7336 46.2906L42.9422 44.947C40.7028 44.2006 36.1346 42.7077 35.7763 42.7077C35.418 42.7077 32.6413 41.5134 31.2977 40.9162L26.819 40.0205L24.1318 41.3641L20.5489 43.1556L17.8617 47.6342L17.4138 53.0086L19.2053 57.4873L23.2361 60.6223Z" fill="#BFE6FE"/>
<path d="M69.3662 61.0706C66.0819 62.5635 59.4236 65.6388 59.0653 65.9971L54.1388 66.445L50.108 56.5919C49.3616 55.099 47.8687 52.0237 47.8687 51.6654C47.8687 51.3071 47.2715 49.1275 46.9729 48.0825L47.8687 46.7389L49.6601 45.3953C51.8995 44.6488 56.4677 43.1559 56.826 43.1559C57.1843 43.1559 59.961 41.9616 61.3046 41.3645L65.7833 40.4688L68.4705 41.8123L72.0534 43.6038L74.7406 48.0825L75.1885 53.4569L73.397 57.9355L69.3662 61.0706Z" fill="#BFE6FE"/>
<path d="M43.4802 32.3161C40.6942 34.6082 35.0587 39.302 34.8054 39.7409L30.1626 41.4485L23.719 32.9745C22.6116 31.7256 20.3737 29.1415 20.2809 28.7954C20.1882 28.4493 19.0473 26.4985 18.4884 25.5664L19.0058 24.0367L20.3885 22.2753C22.3583 20.9747 26.3845 18.3503 26.7306 18.2576C27.0767 18.1648 29.4497 16.2925 30.593 15.368L34.6872 13.3436L37.6306 13.9459L39.8068 18.2576L41.5983 22.2753L44.7333 26.5847L46.5622 28.2446L43.4802 32.3161Z" fill="#BFE6FE"/>
<path d="M75.5551 45.2572C78.0414 41.2759 78.0641 36.2512 75.5498 32.2234L67.3498 19.0885C67.3496 19.0883 67.3494 19.0879 67.3493 19.0876C67.3491 19.0874 67.3489 19.0871 67.3487 19.0867L59.1487 5.95155C55.5527 0.191319 47.9402 -1.5694 42.1802 2.02643C39.3896 3.76859 37.4446 6.49291 36.7031 9.69789C36.5621 10.307 36.4687 10.9198 36.4205 11.532C33.2125 11.3757 30.0818 12.4683 27.6497 14.6341L16.0855 24.9321C16.0853 24.9323 16.0851 24.9324 16.085 24.9324C16.0848 24.9326 16.0846 24.9328 16.0846 24.9328L4.5203 35.2309C2.06372 37.4187 0.606282 40.4323 0.415887 43.7163C0.225666 47.0006 1.3259 50.162 3.51353 52.6186C4.53591 53.7665 5.74278 54.7008 7.10052 55.3949C7.29022 55.4919 7.49223 55.5378 7.69147 55.5378C8.16434 55.5378 8.62038 55.2789 8.85049 54.8291C9.17752 54.1896 8.92418 53.4062 8.2845 53.079C7.21496 52.5322 6.26316 51.7953 5.45598 50.8887C1.89379 46.8887 2.25013 40.7361 6.25033 37.1737L16.8438 27.7402L26.8817 39.0119C25.7719 39.1446 24.673 39.4271 23.6123 39.8665C20.5733 41.1252 18.206 43.4925 16.9473 46.5317C16.0217 48.7665 15.7793 51.1676 16.2149 53.4906C15.3485 53.8262 14.4396 54.0349 13.5011 54.1107C12.7851 54.1686 12.2518 54.7958 12.3097 55.5118C12.3646 56.1921 12.9337 56.7076 13.6046 56.7076C13.6397 56.7076 13.6752 56.7062 13.7108 56.7032C14.8316 56.6126 15.9189 56.3701 16.9601 55.9868C18.2222 59.0116 20.583 61.3676 23.6122 62.6223L37.0234 68.1774C37.3066 68.2946 37.6001 68.3503 37.889 68.3503C38.7801 68.3503 39.6274 67.8223 39.9891 66.949L40.7385 65.1394C41.2924 65.4437 41.922 65.613 42.5757 65.613C44.6871 65.613 46.4044 63.8953 46.4044 61.7841C46.4044 60.0461 45.2399 58.5756 43.6503 58.1099L46.5598 51.0859L51.1518 62.1723C49.2461 62.6903 47.8402 64.4349 47.8402 66.5022C47.8402 68.9764 49.8532 70.9893 52.3273 70.9893C54.2699 70.9893 55.9426 69.7642 56.5593 67.9855L69.5072 62.6223C75.7811 60.0235 78.771 52.8052 76.1723 46.5313C75.9905 46.0916 75.7825 45.6678 75.5551 45.2572ZM18.7864 26.0105L29.3799 16.5769C31.3478 14.8243 33.8966 13.9644 36.4971 14.1439C36.7293 15.8457 37.3182 17.4947 38.2549 18.9952L44.2782 28.6436C43.7581 29.5567 43.0966 30.3771 42.3004 31.0861L32.6211 39.7057C31.9115 39.4409 31.1874 39.2441 30.4553 39.1143L18.7864 26.0105ZM43.8036 61.7843C43.8036 62.4612 43.2528 63.0119 42.5761 63.0119C42.2672 63.0119 41.9759 62.8921 41.7536 62.6899L42.6361 60.5595C43.2849 60.5913 43.8036 61.1276 43.8036 61.7843ZM37.713 65.6476L24.6078 60.2193C19.6591 58.1694 17.3007 52.4757 19.3505 47.527C21.4004 42.5785 27.0941 40.2199 32.0428 42.2696L45.148 47.698L37.713 65.6476ZM46.5601 45.4739C46.5234 45.4564 46.4875 45.4373 46.4495 45.4217L35.3001 40.8035L44.0306 33.0287C44.6942 32.4378 45.2829 31.7844 45.7979 31.0774L53.0922 42.7619L46.6709 45.4217C46.6328 45.4372 46.5969 45.4564 46.5601 45.4739ZM52.3278 68.3883C51.2879 68.3883 50.4417 67.5422 50.4417 66.5022C50.4417 65.5162 51.2026 64.7057 52.1679 64.6242L53.1308 66.949C53.2663 67.2759 53.4697 67.5544 53.718 67.7749C53.3722 68.1545 52.8761 68.3883 52.3278 68.3883ZM73.7696 54.9619C72.7766 57.3592 70.9095 59.2262 68.5123 60.2193L55.4071 65.6476L47.9721 47.6982L61.0773 42.2698C63.4746 41.2767 66.115 41.2767 68.5123 42.2698C70.3229 43.0198 71.8301 44.269 72.8877 45.8677C72.9035 45.8951 72.9206 45.9217 72.9385 45.948C73.2591 46.4434 73.5388 46.9702 73.7696 47.527C74.7627 49.9243 74.7627 52.5648 73.7696 54.9619ZM73.8764 42.9187C72.6775 41.6093 71.1969 40.5661 69.5078 39.8665C66.4687 38.6076 63.121 38.6076 60.082 39.8665L55.5286 41.7526L49.3509 31.8567L59.1071 25.766C59.7165 25.3857 59.902 24.5834 59.5217 23.974C59.1413 23.3647 58.3391 23.1792 57.7296 23.5596L47.9734 29.6503L40.4616 17.6177C39.5743 16.1963 39.0813 14.6062 38.999 12.9774C38.999 12.9405 38.9974 12.9037 38.9943 12.8675C38.9608 12.01 39.039 11.143 39.2376 10.2842C39.8224 7.75614 41.3567 5.60717 43.5577 4.23296C48.1013 1.39646 54.1057 2.78558 56.9422 7.32905L64.454 19.3619L62.9124 20.3243C62.3031 20.7046 62.1176 21.5069 62.4978 22.1164C62.7446 22.5114 63.1685 22.7283 63.6022 22.7283C63.8373 22.7283 64.0754 22.6645 64.2898 22.5308L65.8311 21.5686L73.3429 33.6013C75.1286 36.4609 75.2921 39.958 73.8764 42.9187Z" fill="#404C6C"/>
<path d="M50.4144 72.5908C48.3031 72.5908 46.5857 74.3085 46.5857 76.4195C46.5857 78.5309 48.3031 80.2484 50.4144 80.2484C52.5257 80.2484 54.2433 78.5307 54.2433 76.4195C54.2433 74.3084 52.5257 72.5908 50.4144 72.5908ZM50.4144 77.6472C49.7376 77.6472 49.1869 77.0965 49.1869 76.4195C49.1869 75.7427 49.7376 75.192 50.4144 75.192C51.0914 75.192 51.6421 75.7427 51.6421 76.4195C51.6423 77.0965 51.0914 77.6472 50.4144 77.6472Z" fill="#404C6C"/>
<path d="M42.576 79.5137C39.9767 79.5137 37.8621 81.6285 37.8621 84.2278C37.8621 86.8271 39.9767 88.942 42.576 88.942C45.1754 88.942 47.2903 86.8272 47.2903 84.2279C47.2901 81.6285 45.1754 79.5137 42.576 79.5137ZM42.576 86.3408C41.4109 86.3408 40.4629 85.393 40.4629 84.2278C40.4629 83.0625 41.4107 82.1147 42.576 82.1147C43.7412 82.1147 44.6892 83.0625 44.6892 84.2278C44.6889 85.393 43.7409 86.3408 42.576 86.3408Z" fill="#404C6C"/>
</svg>
