<svg width="66" height="89" viewBox="0 0 66 89" fill="none" xmlns="http://www.w3.org/2000/svg">
<path d="M24.4164 72.4238H8.65765C7.93748 72.4238 7.35376 73.0077 7.35376 73.7277C7.35376 74.4479 7.93765 75.0316 8.65765 75.0316H24.4164C25.1366 75.0316 25.7203 74.4477 25.7203 73.7277C25.7205 73.0077 25.1366 72.4238 24.4164 72.4238Z" fill="#404C6C"/>
<path d="M31.5 40.5H1.5L1 81.5H31.5V40.5Z" fill="#BFE6FE"/>
<path d="M64.5 61.5H45L44.5 85L47.5 88H62L64.5 85.5V61.5Z" fill="#BFE6FE"/>
<path d="M30.6482 32.5123L23.897 27.137C24.2391 26.1643 24.5486 24.5545 24.5486 21.9137C24.5486 18.0366 23.7432 14.7492 23.0555 12.6486C23.4925 12.2596 23.7698 11.6946 23.7698 11.065V2.12244C23.7698 0.952058 22.8176 0 21.6472 0H11.4268C10.2564 0 9.30433 0.952232 9.30433 2.12244V11.065C9.30433 11.6948 9.58159 12.2596 10.0184 12.6486C9.33076 14.7492 8.52541 18.0366 8.52541 21.9137C8.52541 24.5545 8.835 26.1643 9.17709 27.137L2.42595 32.5123C0.884265 33.7397 0 35.574 0 37.5447V84.6596C0 87.053 1.94722 89.0001 4.34067 89.0001H28.7333C31.1267 89.0001 33.0738 87.053 33.0738 84.6596V37.5447C33.074 35.574 32.1899 33.7397 30.6482 32.5123ZM11.9123 2.60795H21.1619V4.60384H11.9123V2.60795ZM11.9123 7.39031H21.1619V10.5797H11.9123V7.39031ZM12.5874 13.1877H20.4865C21.0258 14.7719 21.6788 17.2161 21.8784 20.1474H11.1956C11.3951 17.2161 12.0484 14.7719 12.5874 13.1877ZM2.60812 41.8985H6.80121C7.52138 41.8985 8.10509 41.3146 8.10509 40.5947C8.10509 39.8747 7.5212 39.2908 6.80121 39.2908H2.60812V37.5447C2.60812 36.3729 3.13395 35.2823 4.05055 34.5526L11.6256 28.5211C11.947 28.2654 12.2165 27.9469 12.2043 27.5363C12.1928 27.1462 12.0863 26.8497 11.7878 26.6183C11.6642 26.3844 11.2253 25.3756 11.146 22.7553H21.9283C21.849 25.3758 21.4101 26.3844 21.2865 26.6185C20.9879 26.8499 20.8813 27.1464 20.87 27.5365C20.8578 27.9471 21.1273 28.2654 21.4487 28.5212L29.0238 34.5527C29.9404 35.2826 30.466 36.3731 30.466 37.5448V39.2908H12.8683C12.1482 39.2908 11.5645 39.8747 11.5645 40.5947C11.5645 41.3146 12.1483 41.8985 12.8683 41.8985H30.466V80.0173H2.60812V41.8985ZM30.4662 84.6596H30.466C30.466 85.615 29.6888 86.3922 28.7335 86.3922H4.34084C3.38548 86.3922 2.60812 85.615 2.60812 84.6596V82.6255H30.4662V84.6596Z" fill="#404C6C"/>
<rect x="1" y="39" width="30" height="2.9" fill="#404C6C"/>
<rect x="44" y="68" width="21" height="2.8" fill="#404C6C"/>
<path d="M27.4541 48.1872C27.2445 47.5119 26.7559 46.9541 26.1138 46.6569C19.7591 43.716 13.3149 43.7159 6.96013 46.6569C6.31818 46.9539 5.82955 47.5117 5.61974 48.1871C5.41045 48.8608 5.49667 49.5952 5.85632 50.2019L7.01419 52.1552C7.47779 52.9369 8.30626 53.3818 9.16323 53.3816C9.50237 53.3816 9.84603 53.312 10.1732 53.166C14.5151 51.2289 18.5595 51.2291 22.9009 53.166C24.0551 53.6807 25.4132 53.2463 26.0599 52.1552L27.2177 50.2021C27.5772 49.5954 27.6634 48.861 27.4541 48.1872ZM23.8665 50.7411C18.9359 48.569 14.1387 48.569 9.2079 50.7411L8.16093 48.975C13.7196 46.4351 19.3548 46.4349 24.9135 48.975L23.8665 50.7411Z" fill="#404C6C"/>
<path d="M16.5372 55.5771C11.5466 55.5771 7.63721 58.4373 7.63721 62.0886C7.63721 65.7398 11.5464 68.6 16.5372 68.6C21.528 68.6 25.4372 65.7398 25.4372 62.0886C25.4372 58.4373 21.5278 55.5771 16.5372 55.5771ZM16.5372 65.9922C13.1265 65.9922 10.2452 64.2046 10.2452 62.0888C10.245 59.9727 13.1265 58.1851 16.5372 58.1851C19.9479 58.1851 22.8293 59.9727 22.8293 62.0888C22.8293 64.2046 19.9479 65.9922 16.5372 65.9922Z" fill="#404C6C"/>
<path d="M63.7232 60.0239H45.6411C44.4996 60.0239 43.5708 60.9527 43.5708 62.0942V85.0199C43.5708 87.2145 45.3564 89.0001 47.5508 89.0001H61.8132C64.0078 89.0001 65.7932 87.2145 65.7932 85.0199V62.0942C65.7934 60.9527 64.8646 60.0239 63.7232 60.0239ZM46.1789 70.7982H48.1225C48.8427 70.7982 49.4264 70.2143 49.4264 69.4943C49.4264 68.7743 48.8427 68.1904 48.1225 68.1904H46.1789V62.6319H63.1854V68.1904H54.1896C53.4695 68.1904 52.8857 68.7743 52.8857 69.4943C52.8857 70.2143 53.4695 70.7982 54.1896 70.7982H63.1854V81.999C63.1854 82.028 63.1845 82.0528 63.1832 82.0739C62.9132 82.1384 62.3227 82.1394 61.9147 82.1378H47.4496C47.0439 82.1398 46.4513 82.1384 46.1812 82.0739C46.1798 82.0528 46.1789 82.028 46.1789 81.999V70.7982ZM63.1856 85.0199C63.1854 85.7764 62.5699 86.3921 61.8134 86.3921H47.5509C46.7944 86.3921 46.1789 85.7766 46.1789 85.0199V84.7058C46.5859 84.7461 47.0143 84.747 47.451 84.7456H61.9135C62.3505 84.747 62.7785 84.7461 63.1856 84.7058V85.0199Z" fill="#404C6C"/>
</svg>
