<svg width="90" height="89" viewBox="0 0 90 89" fill="none" xmlns="http://www.w3.org/2000/svg">
<path d="M27.5 71.5C33 76.1667 44.1 85.6 44.5 86L61.5 71.5L60.5 67.5L65.5 67L62.5 58L56 55.5L45 62.5L34.5 55.5L27.5 58L23.5 67L28.5 67.5L27.5 71.5Z" fill="#BFE6FE"/>
<path d="M42.0839 65.9178C41.4121 65.4248 40.4667 65.5688 39.973 66.2409L39.7865 66.4948C39.2933 67.1664 39.4369 68.1104 40.1078 68.6047C40.3774 68.8034 40.6914 68.8993 41.0024 68.8993C41.4653 68.8993 41.9222 68.6872 42.2181 68.2863L42.4073 68.029C42.9009 67.3568 42.7561 66.4116 42.0839 65.9178Z" fill="#404C6C"/>
<path d="M42.478 80.2854L38.594 73.223L42.2203 68.2841C42.7142 67.6119 42.5692 66.6667 41.8969 66.173C41.2247 65.6791 40.2795 65.8241 39.7859 66.4966L35.5888 72.2127C35.2408 72.6866 35.1996 73.3191 35.4828 73.8343L39.8316 81.7409V81.7407C40.1068 82.2405 40.6233 82.5233 41.1563 82.5233C41.4025 82.5232 41.6519 82.463 41.8827 82.3361C42.6134 81.9344 42.8799 81.0162 42.478 80.2854Z" fill="#404C6C"/>
<path d="M53.7337 72.2135L49.5537 66.5206C49.2071 66.0487 48.6197 65.8193 48.045 65.9331C47.4705 66.0459 47.0132 66.481 46.8712 67.0489C46.7622 67.485 46.8531 67.9466 47.1191 68.309L50.7276 73.2238L46.8702 80.2382C46.7477 80.461 46.6833 80.7122 46.6833 80.9667C46.6833 81.656 47.1502 82.2579 47.8178 82.4294C47.9429 82.4617 48.0691 82.4772 48.1936 82.4772C48.7343 82.4772 49.2467 82.1855 49.5169 81.6948L53.8396 73.8354C54.1231 73.3199 54.0816 72.6873 53.7337 72.2135Z" fill="#404C6C"/>
<path d="M56.1266 48.4799C55.6299 48.2191 55.0294 48.2547 54.5673 48.5733C53.669 49.1921 52.8355 49.8477 52.0898 50.5216C48.0257 54.1957 44.1644 53.6985 44.0132 53.6768C43.9221 53.6625 43.8294 53.6559 43.7379 53.6589C42.1316 53.7 39.2356 52.2323 36.172 49.8262C35.7034 49.4583 35.2229 49.1076 34.7432 48.7838C34.2805 48.4712 33.6827 48.4396 33.1896 48.7018C32.6964 48.9639 32.3882 49.4768 32.3882 50.0354V55.2161C32.3882 55.6742 32.5967 56.1072 32.9539 56.394C32.9962 56.428 33.0401 56.4594 33.0855 56.4884L43.7939 63.6439C43.7956 63.645 43.7972 63.6464 43.7989 63.6476L43.8272 63.6664C44.0793 63.8332 44.3697 63.9175 44.6613 63.9175C44.9066 63.9175 45.1518 63.858 45.376 63.7381C45.4233 63.7128 45.4687 63.6851 45.5123 63.6555C45.5173 63.6521 45.5224 63.6488 45.5276 63.6453C45.5336 63.6415 45.5395 63.6375 45.5454 63.6335L56.2285 56.4948C56.2714 56.4676 56.3133 56.4383 56.3536 56.4069C56.7201 56.1208 56.9343 55.6817 56.9343 55.2166V49.817C56.9343 49.2556 56.6235 48.7411 56.1266 48.4799ZM53.9138 54.4083L44.6611 60.5911L35.4086 54.4082V53.0347C37.6615 54.6719 40.9757 56.6801 43.6771 56.6799C43.6827 56.6799 43.689 56.6799 43.6948 56.6799C44.6018 56.7803 49.2272 57.0529 53.9141 52.9413V54.4083H53.9138Z" fill="#404C6C"/>
<path d="M46.1508 62.1602C46.0512 61.5613 45.6023 61.0804 45.0116 60.9394C44.4205 60.7993 43.8033 61.0252 43.4439 61.5148L39.9727 66.2427C39.479 66.9151 39.6238 67.8603 40.2964 68.3538C40.5656 68.5517 40.8785 68.6469 41.1889 68.6469C41.6533 68.6469 42.1114 68.4332 42.4076 68.03L45.8607 63.327C46.0571 63.0702 46.1716 62.7506 46.1716 62.409C46.1714 62.326 46.1644 62.2422 46.1508 62.1602Z" fill="#404C6C"/>
<path d="M67.6687 13.4737C67.6386 13.2371 66.9312 8.13146 62.1253 6.11735C62.2648 5.22064 62.2502 4.06817 61.6809 2.94693C60.9158 1.43997 59.4058 0.457951 57.1928 0.0277387C57.0979 0.00924625 57.0016 0 56.9048 0H36.6351C28.4046 0 21.7084 6.69602 21.7084 14.9269V22.8806C21.7084 24.9528 22.4148 26.9736 23.697 28.5702C24.3327 29.3619 25.1157 30.7445 25.2338 32.8348C25.2799 33.6509 25.963 34.2816 26.7842 34.2589C27.6014 34.2359 28.2517 33.5667 28.2517 32.7493V22.3796C29.2772 18.1387 32.777 17.3133 33.3787 17.2018H39.9352C40.7064 17.2018 41.4648 17.0841 42.1897 16.8517C43.4363 16.4519 45.4142 15.716 46.8541 15.1691C47.8175 14.8029 48.8841 14.7895 49.8571 15.1314L56.8762 17.5954C60.3852 18.8899 61.0115 21.9705 61.0892 22.4544V34.8997C61.0892 35.6901 61.6986 36.3459 62.4867 36.4047C62.5251 36.4075 62.5628 36.4091 62.6005 36.4091C63.3412 36.4089 63.9808 35.8662 64.093 35.1225C64.0989 35.0836 64.7018 31.1884 66.6463 28.0698C67.3229 26.9842 67.6807 25.7464 67.6807 24.4903V13.6644C67.6807 13.6007 67.6767 13.537 67.6687 13.4737ZM64.6601 24.4896C64.6601 25.1643 64.4698 25.8335 64.1094 26.4286V22.3511C64.1094 22.2965 64.1064 22.2423 64.1005 22.188C64.0768 21.9687 63.4527 16.7933 57.9076 14.7563C57.9008 14.7539 57.894 14.7514 57.8872 14.749L50.8574 12.2811C50.0649 12.0028 49.2357 11.864 48.407 11.864C47.5159 11.864 46.6253 12.0246 45.7814 12.3457C43.7654 13.1115 42.2042 13.6752 41.2671 13.9756C40.8409 14.1122 40.3928 14.1816 39.935 14.1816H33.2566C33.1919 14.1816 33.127 14.1858 33.0626 14.194C32.807 14.2272 26.7835 15.0838 25.2677 21.878C25.2436 21.986 25.2314 22.0962 25.2314 22.2069V25.315C24.9025 24.5551 24.7284 23.725 24.7284 22.8808V14.9273C24.7284 8.36209 30.0698 3.02073 36.6348 3.02073H56.7523C57.5852 3.19815 58.5974 3.56225 58.9814 4.30299C59.4515 5.20965 58.916 6.45806 58.9154 6.45911C58.7223 6.86996 58.7246 7.3457 58.9208 7.75481C59.1173 8.16391 59.4875 8.46293 59.9289 8.56917C63.7735 9.49467 64.5577 13.1822 64.66 13.7786V24.4896H64.6601Z" fill="#404C6C"/>
<path d="M64.1007 22.1882C64.077 21.9689 63.453 16.7935 57.9078 14.7565C57.901 14.754 57.8942 14.7516 57.8874 14.7492L50.8577 12.2813C49.2125 11.7038 47.41 11.7269 45.7815 12.3455C43.7654 13.1114 42.2042 13.675 41.2672 13.9756C40.841 14.1122 40.3928 14.1815 39.9351 14.1815H33.2567C33.1919 14.1815 33.127 14.1857 33.0627 14.1939C32.8071 14.227 26.7836 15.0836 25.2677 21.8778C25.2437 21.9858 25.2314 22.0961 25.2314 22.2067V35.1891C25.2314 35.2003 25.2316 35.2114 25.2318 35.2226C25.2417 35.6736 25.5608 46.3237 32.9194 51.1944L32.9575 51.2212C32.989 51.2436 33.0206 51.2659 33.0536 51.288C33.4732 51.5714 33.8945 51.8789 34.3065 52.2024C36.4503 53.8857 40.4902 56.6807 43.6772 56.6807C43.6831 56.6807 43.6887 56.6807 43.6948 56.6807C43.8679 56.6997 44.1768 56.7252 44.5959 56.7252C46.402 56.7252 50.2554 56.2519 54.1151 52.7627C54.7629 52.1774 55.4913 51.6049 56.2809 51.0609L56.3937 50.9819C56.4305 50.9559 56.4673 50.9297 56.5054 50.9042C58.96 49.2556 63.2112 45.0016 64.1037 35.0342C64.1077 34.9895 64.1098 34.9443 64.1098 34.8993V22.3513C64.1096 22.2969 64.1065 22.2426 64.1007 22.1882ZM61.0891 34.8311C60.2662 43.8265 56.4335 47.3137 54.8212 48.3966C54.7639 48.4351 54.7074 48.4749 54.6509 48.5147L54.5672 48.5737C53.6689 49.1925 52.8353 49.8481 52.0897 50.522C48.0407 54.1825 44.192 53.7024 44.0032 53.6758C43.9155 53.6628 43.8265 53.6572 43.7377 53.6596C42.1315 53.7008 39.2355 52.2331 36.1718 49.827C35.7033 49.4589 35.2228 49.1082 34.7437 48.7849L34.7066 48.7588C34.6703 48.7329 34.6342 48.7073 34.5916 48.679C28.6534 44.7487 28.2649 35.5511 28.2518 35.1673V22.3796C29.2809 18.1232 32.8024 17.3072 33.3763 17.2019H39.9352C40.7065 17.2019 41.4649 17.0841 42.1898 16.8517C43.4364 16.4519 45.4144 15.716 46.8542 15.1691C47.8176 14.8029 48.8842 14.7895 49.8572 15.1314L56.8763 17.5954C60.3853 18.8899 61.0116 21.9705 61.0892 22.4544V34.8311H61.0891Z" fill="#404C6C"/>
<path d="M46.0118 61.7332C45.7764 61.2625 45.3131 60.9483 44.7888 60.9036C44.2655 60.8603 43.755 61.0905 43.4436 61.5147L39.826 66.4418C39.3329 67.1138 39.477 68.0583 40.1484 68.5522C40.4178 68.7504 40.7313 68.8461 41.042 68.8461C41.5054 68.8461 41.9628 68.6335 42.2589 68.2317L45.8766 63.3228C46.068 63.0632 46.1712 62.7314 46.1712 62.409C46.1714 62.1747 46.1165 61.943 46.0118 61.7332Z" fill="#404C6C"/>
<path d="M46.1085 86.0486C45.5411 85.4552 44.6038 85.4236 43.9981 85.9779L43.6528 86.2937C43.1359 86.7663 43.0119 87.5325 43.3534 88.1441L43.3641 88.1632C43.5947 88.5764 44.0061 88.8577 44.4749 88.9227C44.5443 88.9323 44.6137 88.937 44.6828 88.937C45.0804 88.937 45.4654 88.7799 45.7507 88.4946L46.0851 88.1598C46.6655 87.5794 46.676 86.6415 46.1085 86.0486Z" fill="#404C6C"/>
<path d="M45.6694 86.2935L45.3241 85.9778C44.7184 85.4237 43.7809 85.4553 43.2135 86.0484C42.646 86.6419 42.6565 87.58 43.2371 88.1602L43.572 88.495C43.8573 88.7803 44.2421 88.9373 44.6397 88.9373C44.7107 88.9373 44.7821 88.9324 44.8534 88.9221C45.3238 88.8549 45.7351 88.57 45.9639 88.1534L45.9745 88.1344C46.3091 87.5238 46.1831 86.7634 45.6694 86.2935Z" fill="#404C6C"/>
<path d="M45.6948 86.3172L45.6929 86.3154C45.4597 86.0974 45.158 85.9536 44.8257 85.9172C44.3806 85.8687 43.9471 86.0194 43.6319 86.313L43.6273 86.3172C43.322 86.5956 43.1443 86.9873 43.1354 87.4004C43.1265 87.8139 43.2873 88.2125 43.5802 88.5038L43.5961 88.5197C43.8908 88.8126 44.2758 88.959 44.661 88.959C45.0476 88.959 45.434 88.8114 45.7287 88.5169L45.7445 88.5011C46.0362 88.2092 46.196 87.8109 46.1864 87.3985C46.1774 86.9859 45.9996 86.5953 45.6948 86.3172Z" fill="#404C6C"/>
<path d="M45.1509 60.9463C44.5255 60.746 43.8392 60.9782 43.4583 61.5138C43.0323 62.1135 43.1026 62.9309 43.6216 63.4523C43.9137 63.7458 44.3013 63.8962 44.6919 63.8962C44.9953 63.8962 45.3002 63.8054 45.5633 63.6202C45.9653 63.3374 46.2045 62.8768 46.2045 62.3852V62.3815C46.2045 61.7243 45.777 61.146 45.1509 60.9463Z" fill="#404C6C"/>
<path d="M45.8883 61.5019L45.8754 61.4845C45.4879 60.9601 44.8075 60.7441 44.1884 60.948C43.5692 61.152 43.1509 61.7305 43.1509 62.3822V62.4081C43.1509 62.9641 43.463 63.4709 43.9529 63.7339C44.1748 63.8531 44.4197 63.9119 44.6643 63.9119C44.9593 63.9119 45.254 63.8264 45.5073 63.6586C45.8525 63.43 46.0889 63.0696 46.161 62.6619C46.233 62.2544 46.1344 61.8348 45.8883 61.5019Z" fill="#404C6C"/>
<path d="M62.6267 56.7573C62.4702 56.3437 62.1403 56.0196 61.724 55.8706L55.9336 53.7949C55.8867 53.7781 55.838 53.7631 55.7895 53.7513C55.3762 53.6478 54.9383 53.7237 54.5842 53.9606L43.8554 61.1298C43.8526 61.1317 43.8495 61.1336 43.8465 61.1357L44.6889 62.3883L43.8277 61.1484C43.5129 61.3566 43.2875 61.6756 43.1961 62.0417C43.1459 62.2426 43.1377 62.4525 43.1717 62.6568C43.2106 62.8902 43.3038 63.1114 43.444 63.3025L51.299 74.0004C51.5844 74.3894 52.0373 74.6169 52.516 74.6169C52.5488 74.6169 52.5817 74.6157 52.6147 74.6134C53.1292 74.5796 53.591 74.2861 53.8394 73.8341L62.5373 58.0199C62.7507 57.6322 62.7833 57.1706 62.6267 56.7573ZM52.3332 70.3055L46.8124 62.7864L55.6299 56.8945L59.0375 58.1162L52.3332 70.3055Z" fill="#404C6C"/>
<path d="M46.149 62.1472C46.078 61.7418 45.8448 61.3829 45.5029 61.1535L34.7383 53.9605C34.3957 53.7312 33.9733 53.6527 33.5708 53.742C33.5091 53.7556 33.4484 53.7734 33.3889 53.7947L27.5985 55.8704C27.1822 56.0196 26.8523 56.3437 26.6958 56.7572C26.5393 57.1708 26.5718 57.6321 26.785 58.0197L35.4829 73.8339C35.7313 74.2858 36.1931 74.5794 36.7076 74.6133C36.7404 74.6153 36.7734 74.6164 36.8062 74.6164C37.2849 74.6164 37.7376 74.3889 38.0235 73.9997L42.2206 68.2836C42.2239 68.2792 42.2272 68.2745 42.2306 68.2698L45.8786 63.3011C46.1222 62.9693 46.2199 62.5527 46.149 62.1472ZM39.7862 66.4954C39.7826 66.5003 39.7791 66.5052 39.7754 66.5101L36.9888 70.3054L30.2844 58.1159L33.6923 56.8943L42.5095 62.7863L39.7862 66.4954Z" fill="#404C6C"/>
<path d="M89.2473 82.5383L87.2992 70.7741C86.6853 67.0667 84.1087 63.9693 80.5749 62.6912L61.7276 55.8723C61.1464 55.6623 60.4969 55.827 60.0863 56.2879C59.6756 56.749 59.5868 57.4137 59.8624 57.9665L63.7975 65.8579L59.9362 65.9174C59.412 65.9256 58.9293 66.2048 58.6615 66.6556C58.3935 67.1064 58.3785 67.6636 58.6217 68.1281L60.2054 71.152L43.9978 85.9786C43.9812 85.9938 43.965 86.0092 43.9491 86.025L43.6145 86.3596C43.1405 86.8338 43.0357 87.5637 43.3575 88.152L43.3694 88.1735C43.6344 88.6576 44.1424 88.9589 44.6944 88.9589H83.8027C85.4274 88.9589 86.9616 88.2483 88.012 87.0093C89.0626 85.7703 89.5129 84.1405 89.2473 82.5383ZM85.7088 85.0559C85.2329 85.617 84.5382 85.9387 83.8029 85.9387H48.5161L63.1026 72.5955C63.6086 72.133 63.7394 71.3879 63.4212 70.7806L62.4359 68.8994L66.2436 68.8408C66.7626 68.833 67.2408 68.5589 67.5106 68.1156C67.7802 67.6719 67.8034 67.1214 67.5719 66.6568L64.2507 59.9967L79.5482 65.531C82.056 66.4382 83.8845 68.6363 84.3201 71.2673L86.2683 83.0315C86.2683 83.0317 86.2683 83.0317 86.2683 83.0317C86.3883 83.7573 86.1846 84.4949 85.7088 85.0559Z" fill="#404C6C"/>
<path d="M45.7078 86.3293L45.6902 86.3134C45.0925 85.7722 44.1745 85.7963 43.6058 86.3682L43.5901 86.384C43.16 86.8167 43.0325 87.4657 43.2666 88.0288C43.5009 88.5921 44.0512 88.959 44.6611 88.959H44.6942C45.3186 88.959 45.8788 88.5745 46.1031 87.992C46.328 87.4091 46.1708 86.7483 45.7078 86.3293Z" fill="#404C6C"/>
<path d="M45.6604 86.2861C45.3176 85.9775 44.8527 85.8423 44.3973 85.9199C43.9425 85.9969 43.5479 86.2779 43.326 86.6823L43.3155 86.7013C42.9971 87.2817 43.094 88.0019 43.5544 88.4778L43.5598 88.4834C43.8556 88.7892 44.2499 88.9434 44.6452 88.9434C45.009 88.9434 45.3738 88.8126 45.6627 88.5486L45.6785 88.5343C45.8157 88.4094 45.9287 88.2597 46.0118 88.0937C46.3158 87.486 46.1655 86.7404 45.6604 86.2861Z" fill="#404C6C"/>
<path d="M45.7257 86.3781L45.7194 86.3717C45.7154 86.3677 45.7112 86.3635 45.7074 86.3597L45.3724 86.025C45.3567 86.0092 45.3405 85.9936 45.3241 85.9788L29.1165 71.1522L30.7004 68.1283C30.9437 67.6639 30.9285 67.1065 30.6607 66.6557C30.3928 66.2051 29.9102 65.9258 29.386 65.9176L25.5244 65.8581L29.4594 57.9667C29.7351 57.414 29.6461 56.7492 29.2356 56.2881C28.8251 55.827 28.1747 55.6621 27.5943 55.8725L8.74716 62.6914C5.21335 63.9693 2.63661 67.0668 2.02269 70.7743L0.0745283 82.5385C-0.190821 84.1414 0.259628 85.7709 1.31021 87.0097C2.36097 88.2485 3.89532 88.9591 5.51952 88.9591H44.6611C45.2728 88.9591 45.8239 88.5901 46.057 88.0248C46.2902 87.4596 46.1594 86.8092 45.7257 86.3781ZM5.51969 85.9389C4.78418 85.9389 4.08949 85.6172 3.61392 85.0561C3.13835 84.4952 2.93458 83.7574 3.05461 83.0317L5.00278 71.2675C5.4384 68.6362 7.26688 66.4384 9.77471 65.5312L25.072 59.9969L21.751 66.6566C21.5194 67.1212 21.5424 67.6718 21.8123 68.1154C22.0818 68.5589 22.5603 68.8328 23.0794 68.8406L26.8871 68.8994L25.9017 70.7806C25.5837 71.3877 25.7145 72.133 26.2201 72.5955L40.8067 85.9389H5.51969Z" fill="#404C6C"/>
<path d="M49.8012 67.7802C49.9102 67.344 49.8194 66.8822 49.5533 66.5199L45.8782 61.5149C45.4919 60.9887 44.8109 60.7795 44.1908 60.983C43.8561 61.0927 43.5802 61.3143 43.3967 61.5974L39.7888 66.4929C39.7371 66.5626 39.6912 66.6377 39.6523 66.7155C39.4051 67.21 39.4479 67.8001 39.7636 68.2538L41.3001 70.4602L39.6633 80.7771C39.6108 81.1084 39.6701 81.4475 39.8317 81.7415L43.3379 88.1163C43.6033 88.599 44.1106 88.8988 44.6612 88.8988C45.2119 88.8988 45.7191 88.599 45.9844 88.1163L49.5169 81.6942C49.6393 81.4712 49.7037 81.2209 49.7037 80.9665V80.9657C49.7037 80.8865 49.6972 80.8073 49.685 80.7289L48.0558 70.4604L49.5756 68.2782C49.68 68.1272 49.7569 67.9581 49.8012 67.7802ZM44.6612 84.2551L42.7273 80.7392L44.3784 70.333C44.4396 69.9475 44.3491 69.5535 44.1261 69.2334L42.8606 67.4159L44.6655 64.9669L46.4799 67.4379L45.2296 69.2334C45.0066 69.5534 44.9162 69.9475 44.9773 70.333L46.6209 80.6918L44.6612 84.2551Z" fill="#404C6C"/>
</svg>
