<svg width="70" height="45" viewBox="0 0 70 45" fill="none" xmlns="http://www.w3.org/2000/svg">
<path d="M2.2 0.399999V18.152H11.16V20H0.24V0.399999H2.2ZM15.9546 1.688C15.9546 2.06133 15.8239 2.37867 15.5626 2.64C15.3012 2.90133 14.9839 3.032 14.6106 3.032C14.2372 3.032 13.9199 2.90133 13.6586 2.64C13.3972 2.37867 13.2666 2.06133 13.2666 1.688C13.2666 1.31467 13.3972 0.997333 13.6586 0.735999C13.9199 0.474666 14.2372 0.343999 14.6106 0.343999C14.9839 0.343999 15.3012 0.474666 15.5626 0.735999C15.8239 0.997333 15.9546 1.31467 15.9546 1.688ZM15.5346 20H13.6866V6H15.5346V20ZM31.1881 18.236C29.7508 19.636 28.0148 20.336 25.9801 20.336C23.9081 20.336 22.1628 19.636 20.7441 18.236C19.3254 16.8173 18.6161 15.072 18.6161 13C18.6161 10.928 19.3254 9.192 20.7441 7.792C22.1628 6.37333 23.9081 5.664 25.9801 5.664C28.0334 5.664 29.7694 6.37333 31.1881 7.792C32.6254 9.192 33.3441 10.928 33.3441 13C33.3441 15.0533 32.6254 16.7987 31.1881 18.236ZM22.0601 16.948C23.1241 18.012 24.4308 18.544 25.9801 18.544C27.5294 18.544 28.8361 18.012 29.9001 16.948C30.9641 15.8467 31.4961 14.5307 31.4961 13C31.4961 11.4507 30.9641 10.144 29.9001 9.08C28.8361 7.99733 27.5294 7.456 25.9801 7.456C24.4308 7.456 23.1241 7.99733 22.0601 9.08C20.9961 10.144 20.4641 11.4507 20.4641 13C20.4641 14.5307 20.9961 15.8467 22.0601 16.948ZM42.9886 5.664C44.6686 5.664 46.0032 6.18667 46.9926 7.232C47.9819 8.25867 48.4766 9.64933 48.4766 11.404V20H46.6286V11.404C46.6286 10.1533 46.2926 9.18267 45.6206 8.492C44.9672 7.80133 44.0339 7.456 42.8206 7.456C41.4206 7.456 40.3099 7.89467 39.4886 8.772C38.6859 9.64933 38.2846 10.9467 38.2846 12.664V20H36.4366V6H38.2846V8.184C39.3299 6.504 40.8979 5.664 42.9886 5.664ZM51.4953 0.399999H53.7353L52.0553 6.7H50.3753L51.4953 0.399999ZM56.5957 9.668C56.5957 10.7507 57.557 11.544 59.4797 12.048C60.021 12.1787 60.3757 12.272 60.5437 12.328C60.7117 12.3653 61.0384 12.468 61.5237 12.636C62.0277 12.7853 62.373 12.916 62.5597 13.028C62.765 13.14 63.045 13.3173 63.3997 13.56C63.7544 13.784 64.0064 14.0173 64.1557 14.26C64.305 14.484 64.445 14.7827 64.5757 15.156C64.7064 15.5107 64.7717 15.8933 64.7717 16.304C64.7717 17.4987 64.2957 18.4693 63.3437 19.216C62.429 19.9627 61.2157 20.336 59.7037 20.336C58.397 20.336 57.2677 20.0467 56.3157 19.468C55.3637 18.8707 54.6917 18.0867 54.2997 17.116L55.8677 16.192C56.129 16.92 56.5957 17.4987 57.2677 17.928C57.9584 18.3387 58.7704 18.544 59.7037 18.544C60.6557 18.544 61.4304 18.3573 62.0277 17.984C62.625 17.6107 62.9237 17.0507 62.9237 16.304C62.9237 15.2213 61.9624 14.428 60.0397 13.924C59.4984 13.7933 59.1437 13.7093 58.9757 13.672C58.8077 13.616 58.4717 13.5133 57.9677 13.364C57.4824 13.196 57.137 13.056 56.9317 12.944C56.745 12.832 56.4744 12.664 56.1197 12.44C55.765 12.1973 55.513 11.964 55.3637 11.74C55.2144 11.4973 55.0744 11.1987 54.9437 10.844C54.813 10.4707 54.7477 10.0787 54.7477 9.668C54.7477 8.52933 55.1957 7.57733 56.0917 6.812C57.025 6.04667 58.173 5.664 59.5357 5.664C60.6557 5.664 61.645 5.916 62.5037 6.42C63.381 6.924 64.025 7.624 64.4357 8.52L62.8957 9.416C62.373 8.10933 61.253 7.456 59.5357 7.456C58.6957 7.456 57.9957 7.652 57.4357 8.044C56.8757 8.436 56.5957 8.97733 56.5957 9.668Z" fill="#53AEFF"/>
<path d="M12.84 32.996V24.4H14.8V44H12.84V34.844H2.2V44H0.24V24.4H2.2V32.996H12.84ZM25.4593 29.664C27.5499 29.664 29.2206 30.4013 30.4713 31.876C31.7593 33.332 32.4033 35.0587 32.4033 37.056C32.4033 37.1493 32.3846 37.4387 32.3473 37.924H20.0553C20.2419 39.324 20.8393 40.444 21.8473 41.284C22.8553 42.124 24.1153 42.544 25.6273 42.544C27.7553 42.544 29.2579 41.7507 30.1353 40.164L31.7593 41.116C31.1433 42.124 30.2939 42.9173 29.2113 43.496C28.1473 44.056 26.9433 44.336 25.5993 44.336C23.3966 44.336 21.6046 43.6453 20.2233 42.264C18.8419 40.8827 18.1513 39.128 18.1513 37C18.1513 34.8907 18.8326 33.1453 20.1953 31.764C21.5579 30.364 23.3126 29.664 25.4593 29.664ZM25.4593 31.456C24.0033 31.456 22.7806 31.8853 21.7913 32.744C20.8206 33.6027 20.2419 34.732 20.0553 36.132H30.4993C30.2939 34.6387 29.7246 33.4907 28.7913 32.688C27.8206 31.8667 26.7099 31.456 25.4593 31.456ZM47.3828 32.744V30H49.2308V44H47.3828V41.256C46.0948 43.3093 44.2095 44.336 41.7268 44.336C39.7295 44.336 38.0215 43.6267 36.6028 42.208C35.2028 40.7893 34.5028 39.0533 34.5028 37C34.5028 34.9467 35.2028 33.2107 36.6028 31.792C38.0215 30.3733 39.7295 29.664 41.7268 29.664C44.2095 29.664 46.0948 30.6907 47.3828 32.744ZM37.9468 40.948C39.0108 42.012 40.3175 42.544 41.8668 42.544C43.4161 42.544 44.7228 42.012 45.7868 40.948C46.8508 39.8467 47.3828 38.5307 47.3828 37C47.3828 35.4507 46.8508 34.144 45.7868 33.08C44.7228 31.9973 43.4161 31.456 41.8668 31.456C40.3175 31.456 39.0108 31.9973 37.9468 33.08C36.8828 34.144 36.3508 35.4507 36.3508 37C36.3508 38.5307 36.8828 39.8467 37.9468 40.948ZM54.9916 30V32.324C55.8503 30.6253 57.3249 29.776 59.4156 29.776V31.568C58.0716 31.568 56.9983 31.96 56.1956 32.744C55.3929 33.5093 54.9916 34.6667 54.9916 36.216V44H53.1436V30H54.9916ZM69.6417 30V31.792H65.6097V40.276C65.6097 41.0413 65.7591 41.592 66.0577 41.928C66.3564 42.2453 66.8044 42.4133 67.4017 42.432C67.9991 42.432 68.7457 42.4133 69.6417 42.376V44C67.6444 44.2987 66.1604 44.1587 65.1897 43.58C64.2377 42.9827 63.7617 41.8813 63.7617 40.276V31.792H60.8217V30H63.7617V26.64L65.6097 26.08V30H69.6417Z" fill="#AB3115"/>
</svg>
